<?xml version="1.0" encoding="UTF-8"?>
<svg id="Layer_2" data-name="Layer 2" xmlns="http://www.w3.org/2000/svg" viewBox="0 0 403 576.51">
  <defs>
    <style>
      .cls-1 {
        fill: #fff;
      }
    </style>
  </defs>
  <g id="Layer_1-2" data-name="Layer 1">
    <g>
      <path class="cls-1" d="M105.5,129.5c-1.66.03-3.34-.02-5,0v-4.51s-4.5,0-4.5,0v-5.01s4.5,0,4.5,0v-14.5h9.5v-4.5s-4.5,0-4.5,0v-9.5h9.5s0-5,0-5h9.5v-24l5.01-.29v-4.71s-5.01,0-5.01,0v-19h5s.29-5.01.29-5.01h4.21s0,5.01,0,5.01h10v-18.75l-.75-.75h-9.25v-9.5h-4.5s0-4.5,0-4.5h4.51S134,0,134,0h5.01s0,5,0,5h9.5s0,4.5,0,4.5h-5.01c.19,1.64-.62,3.81.75,5h18.75v4.5h19v5s-4.51.29-4.51.29v4.71s4.51,0,4.51,0v23.25l.75.75h18.75v4.5h9.5v5h9.5v9.5h5c-.19,1.64.62,3.81-.75,5h-9.25v9.5h-4.5v24h-5s0,4.5,0,4.5h-4.5s0,10,0,10h4.5s0,4.5,0,4.5h5s0,10,0,10h4.5s0,4.5,0,4.5h5.01s0,5,0,5h5.01s0,5,0,5h4.51s0,4.5,0,4.5h5s0,14.5,0,14.5h9.5v14.5h5s0,4.5,0,4.5h4.5s0,14.5,0,14.5h5v9.5h4.5v9.25c.68,1.45,4.65.39,5,.75v4.51s5,0,5,0v9.5h9.5v24.5l4.51.29v4.21s-4.51,0-4.51,0v14.5h24v5s4.5,0,4.5,0v4.5s10,0,10,0v9.5h-9.25l-.75.75v13.75h-4.5s0,5,0,5h4.51s0,4.5,0,4.5h5.01s0-4.51,0-4.51l-4.51-.29v-4.71s4.51,0,4.51,0v-4.51s5,0,5,0l.29,4.51h4.21s0-4.51,0-4.51h5.01s.29,4.51.29,4.51h4.71s.29-4.52.29-4.52h4.21s0,4.51,0,4.51h5.01v-4.51s4.5,0,4.5,0v14h5s.29-4.51.29-4.51h4.21s0,4.51,0,4.51h10v-24h4.5s0-4.5,0-4.5h5.01s0-5,0-5h4.5v14.5h5s0,4.5,0,4.5h-9.5v-4.5s-5,0-5,0v9.5h5s0,5,0,5h9.5v9.5h-9.5v14.5h-5s0,4.5,0,4.5h-4.51s0,5,0,5h-5.01s0,5,0,5h-9.5v-10h-5s0-4.5,0-4.5h-9.5v-5h-14.5v-4.5s-4.5,0-4.5,0v9.5h-5s0,4.5,0,4.5l-4.53.22-.47,4.78h-9.5v5h-9.5v4.5s5,0,5,0v5s14,0,14,0v4.5s-4.5,0-4.5,0c-.04,3.33.07,6.68,0,10-1.66-.03-3.34.02-5,0v4.51s5.01,0,5.01,0c.02-1.5-.03-3.01,0-4.5,1.5.02,3.01-.02,4.5,0v4.51s5,0,5,0v5.01s-5,0-5,0v19h5s.29,5.01.29,5.01h4.71s0-5.01,0-5.01h14v5s5,0,5,0v5.01s5,0,5,0v9.5h-14.5v4.5c-1.66-.02-3.34.02-5,0-.03-1.5.02-3.01,0-4.5h-4.51s0,4.51,0,4.51c1.5.02,3.01-.03,4.5,0,.13,6.49-.09,13.01,0,19.5h5.01s0,5,0,5h4.51s0,4.5,0,4.5h5.01s0-4.51,0-4.51l4.78-.47.22-4.53c6.32-.07,12.68.11,19,0-.04-1.66.03-3.34,0-5h5.01s0,5.01,0,5.01c-1.66.02-3.34-.03-5,0,.03,1.5-.22,3.06.22,4.53l4.78.47v14h-9.25c-1.37,1.19-.57,3.36-.75,5h5.01s0,4.5,0,4.5l-4.53.22-.47,4.78h5s0,14.5,0,14.5h9.5v24h-9.5v14.5h-5s0,4.5,0,4.5h-4.51s0,5,0,5h-19l-.47-4.78-4.53-.22v5.01s-5,0-5,0v-5.01s-4.5,0-4.5,0v-4.5h19v4.5h9.5v-9.5h-4.5v-14.5h-5v-9.5h-4.5c-.36-.35.71-4.32-.75-5h-9.25v-14h5s0-4.71,0-4.71l-5.01-.29v-9.5h-4.5s0-5,0-5h-9.5v-28.5s-5,0-5,0v-5.01s-5,0-5,0v-5.01s-4.5,0-4.5,0v-9.5h-9.5c-.85-8.57,1-18.94.03-27.28-.09-.73-.06-1.29-.78-1.72h-13.75v5s-5,0-5,0v-14.5h-4.5s0-4.5,0-4.5h4.51s0-5,0-5h5s0-9.5,0-9.5h-5s0-5,0-5h-4.5s0-9.5,0-9.5h-5v14.5h-9.5v9.5h-10v5h-24v4.5s-4.21,0-4.21,0l-.29-4.51h-9.5l-.29,4.51h-14.21c-.02-1.5.03-3.01,0-4.51,1.5-.04,3.06.22,4.53-.22l.47-4.78h-5.01c.02,1.66-.02,3.34,0,5-6.49.16-13.01-.12-19.5,0v4.51s-4.5,0-4.5,0v-9.5h5c-.19-1.64.62-3.81-.75-5h-9.25v5h-9.5v-5s-4.53.22-4.53.22l-.47,4.78h-14v14.5h-24l-.29,4.51h-4.71s0-4.51,0-4.51h-14.5l.47,4.78,4.53.22v4.51s4.51.29,4.51.29v4.71s-4.51,0-4.51,0v4.51s-5,0-5,0v19.5h-4.5v13.75c-.68,1.45-4.65.39-5,.75v4.51s-4.5,0-4.5,0v-9.5h-5s0,5,0,5l-4.53-.22-.47-4.78h-9.5v14.5h-5s0,4.5,0,4.5h-4.51s0,5,0,5h-5s0,14.5,0,14.5h9.5v9.5h-9.5v24h5v19.5h4.5s0,4.5,0,4.5h5.01s0,5,0,5h5s0,9.5,0,9.5h-5v14.5h-9.5v4.5h-9.5v5s-5,0-5,0v-5.01s-4.5,0-4.5,0v-4.5s-14.5,0-14.5,0v-9.5c-1.65-.19-3.81.62-5-.75v-9.25H0v-9.5h4.5s0-4.5,0-4.5l4.18-.07.75-.75.07-4.18h-5.01s0-5,0-5h5.01s0-4.5,0-4.5h4.5s0-9.5,0-9.5h5s0-5,0-5h5s0-9.5,0-9.5h4.5v-19.5h-4.5v-14c2.98-.54,7.04.76,9.5-.75v-9.25h4.5v-19h5s0-5,0-5h5.01s0-4.5,0-4.5h4.51s0-5,0-5h-9.5v-5h-9.5v-4.5s-5.01-.29-5.01-.29v-4.71s5.01,0,5.01,0v-9.5h4.5v-19h5s0-5,0-5h14.5l.29,5.01h4.21s0-5.01,0-5.01h14.5v-9.5h5v-14.5h4.5v-24h-4.5v-24l-5.01-.29v-4.71s5.01,0,5.01,0v-9.5h4.5v-9.5h5v-10h-5s0-4.21,0-4.21l5.01-.29v-9.5h-9.5s0-5,0-5h-5.01s0-5,0-5h-4.51s0-4.5,0-4.5h-5s0-10,0-10h-5s0-4.21,0-4.21l5.01-.29v-5s13.75,0,13.75,0c1.45.68.39,4.65.75,5h4.21s.29-5,.29-5h10v-4.5s-5,0-5,0v-9.5l4.78-.47.22-28.53h-5s0-9.5,0-9.5c-1.65-.19-3.81.62-5-.75v-18.75h5s0-4.5,0-4.5h9.5v-5s5,0,5,0c.03-1.66-.05-3.34,0-5,1.5-.02,3.01.02,4.5,0v-4.51s-4.51,0-4.51,0c-.03,1.49.04,3.01,0,4.5ZM163,129.5c-.09,4.82.07,9.68,0,14.5h-9.5v5s-5,0-5,0l.22,4.53,4.78.47v19h-5s0,4.5,0,4.5l-4.53.22-.47,4.78h5.01s0,5,0,5h4.71s.29-5.01.29-5.01h4.51s0,5.01,0,5.01h5.01s0,4.21,0,4.21l-5.01.29v9.5h-4.5s0,4.71,0,4.71l4.51.29v9.5h-4.5s0-4.5,0-4.5h-14.5v4.5s-5,0-5,0v24h-9.5v10h-4.5s0-5,0-5h-4.71s-.29,5-.29,5h-9.5s0,14,0,14h-5v14.5h5v10h9.5s0,4.5,0,4.5h-5s0,9.5,0,9.5h-4.5v9.5c-1.65.19-3.81-.62-5,.75v9.25h-5s0,4.5,0,4.5h5.01s0,5,0,5h5.01s0,5,0,5h9.5v4.5s4.5,0,4.5,0v4.71s-4.51.29-4.51.29v5.01s4.5,0,4.5,0v9.5h-4.5s0,4.5,0,4.5h-9.5v5s-5,0-5,0l.22,4.53,9.28.47v-5s10,0,10,0v-5s4.5,0,4.5,0v-4.51s5,0,5,0v-5.01s4.5,0,4.5,0c.36.35-.71,4.32.75,5h23.25v-9.5h5s0-5,0-5h5.01s0-5,0-5h33.5v5h9.5v-5s4.5,0,4.5,0l.29,5.01h4.71s0-5.01,0-5.01h5s0-9.5,0-9.5h9.5v5s4.78-.47,4.78-.47l.22-14.03h4.51s0-4.71,0-4.71l-4.51-.29-.47-4.78-4.53-.22v-14l-4.78-.47-.22-4.53h5s0-9.5,0-9.5h-5v-14.5h-14c-.19-1.65.62-3.81-.75-5h-9.25v-4.5s-4.5,0-4.5,0v-4.71s4.51-.29,4.51-.29v-4.5s19.5,0,19.5,0v-14.5h-5s0-5,0-5h5.01s-.22-4.53-.22-4.53l-4.78-.47v-4.5s-9.5,0-9.5,0v-5s-5,0-5,0v-4.51s-4.5,0-4.5,0v-5.01s-5,0-5,0v-28.5l4.78-.47.22-4.53h9.5v-14.5h-5v-9.5h-19v4.5s-5,0-5,0v5s-9.5,0-9.5,0v-5s-4.5,0-4.5,0v-9.5h4.5s0-4.5,0-4.5c.35-.36,4.32.71,5-.75v-9.25h-5v-9.5h9.5v-5s-4.51-.29-4.51-.29v-4.21s4.51,0,4.51,0v-14.5h-4.5c-.36-.35.71-4.32-.75-5h-8.75v-4.5s-5,0-5,0v-5.01s-5,0-5,0v24h-9.5v5s-5,0-5,0c.19,1.65-.62,3.81.75,5h9.25v4.5s4.5,0,4.5,0v9.5c1.66-.02,3.34.03,5,0,.03-1.5-.02-3.01,0-4.5h4.51s0,4.51,0,4.51c-1.5.02-3.01-.03-4.5,0ZM244.5,192h-9.5v10h9.5s0,4.5,0,4.5h5.01s-.22-4.53-.22-4.53l-4.78-.47v-9.5ZM100.5,225.5h-9.5v10l4.78-.47.22-4.53h4.51s0-5,0-5ZM110,225.5h-4.5v10h4.5v-10ZM254,293h-4.51v5.01h4.51v-5.01ZM211,355.5h-9.5l-.47,4.78-4.53.22v9.5h5s0,5,0,5h9.5v-5s5,0,5,0v-9.5h-5s0-5,0-5ZM307,394h-5.01c.16,1.16-.45,4.15.47,4.78l4.53.22v-5.01ZM350,499.5h-4.5v10h4.5v-10Z"/>
      <polygon class="cls-1" points="67 336.5 62 336.5 61.71 341.01 57.5 341.01 57.5 336.5 48 336.5 47.93 303.32 47.18 302.57 43 302.51 43 298 38.22 297.53 38 293 43 293.01 43 288.5 47.5 288.5 47.5 293 62 293 62 288.5 67 288.5 67 312.5 71.51 312.79 71.5 317.01 67 317 67 336.5"/>
      <polygon class="cls-1" points="62 480.5 67 480.51 67 475.5 61.99 475.21 62 471 67 471.01 67 466 71.5 466 71.97 470.78 76.5 471 76.5 475.51 81.5 475.5 81.5 485.5 86 485.5 86 495 71.5 495 71.5 499.5 62 499.5 62 480.5"/>
      <path class="cls-1" d="M403,543v4.5s-5,0-5,0v5.01s-4.5,0-4.5,0l-.07,4.18c-.41,1.26-4.19,1.09-4.71.35l-.22-4.53h-4.51s0-5,0-5h9.5v-4.5h9.5Z"/>
      <path class="cls-1" d="M302,490c.05-3.16-.04-6.34,0-9.5h9.5v14.5h-4.5s0-5,0-5c-1.66.02-3.34-.02-5,0-.03,1.66.02,3.34,0,5h-4.51s0-5.01,0-5.01c1.5-.02,3.01.03,4.5,0Z"/>
      <path class="cls-1" d="M307,514v5.01c-1.16-.16-4.15.45-4.78-.47l-.22-4.53h5.01Z"/>
      <rect class="cls-1" x="14" y="418" width="5.01" height="4.51"/>
      <rect class="cls-1" x="292.5" y="480.5" width="5.01" height="4.51"/>
      <rect class="cls-1" x="307" y="499.5" width="4.51" height="5.01"/>
      <rect class="cls-1" x="192" y="5" width="4.51" height="4.51"/>
      <rect class="cls-1" x="331" y="307.5" width="4.51" height="4.51"/>
      <rect class="cls-1" x="153.5" y="384.5" width="4.51" height="4.51"/>
      <path class="cls-1" d="M134,288.5v8.75l.75.75h8.75v-5s-4.5,0-4.5,0v-4.51s-5,0-5,0Z"/>
      <polygon class="cls-1" points="134 288.5 139 288.5 139 293.01 143.5 293 143.5 298 134.75 298 134 297.25 134 288.5"/>
    </g>
  </g>
</svg>