<?xml version="1.0" encoding="UTF-8"?>
<svg id="Layer_2" xmlns="http://www.w3.org/2000/svg" viewBox="0 0 43.06 57.74">
  <defs>
    <style>
      .cls-1 {
        fill: #fff;
      }
    </style>
  </defs>
  <g id="Layer_1-2" data-name="Layer_1">
    <path class="cls-1" d="M27.6,53.84c.11,0,.22-.01.35-.02.01.12.03.22.04.33.11.01.2.03.33.05v.66c.12.02.22.04.34.06v1.38h-.67c0-.1-.01-.21-.02-.34h-.68c-.02-.13-.03-.23-.05-.35h-1.04c-.01.11-.02.21-.04.33h-1.75c-.02.13-.04.24-.06.36-.1.01-.19.02-.33.04v.65c-.12.02-.21.03-.33.05-.01.1-.02.2-.04.33h-.69c-.02.13-.03.24-.05.37h-1.37c-.02-.11-.04-.22-.06-.34h-1.01c-.02-.13-.04-.23-.06-.37h-.67v-3.2c-.25-.01-.47-.02-.72-.04,0-.11-.01-.2-.02-.33h.71v-.72c-.11-.01-.21-.03-.34-.04v-.66c-.13-.01-.23-.02-.36-.03v-.69c-.12-.02-.22-.03-.34-.05-.02-.1-.03-.19-.06-.32h-1.41v.67c-.13.02-.24.04-.36.06v2.46c.11.02.21.04.33.06v.31h-1.02c-.01-.1-.03-.21-.05-.33-.1-.01-.2-.02-.32-.03-.02-.1-.03-.2-.05-.32h-.66c-.02.11-.04.2-.06.32h-.66c-.01-.1-.03-.2-.04-.31-.1-.01-.19-.02-.3-.04-.02-.1-.03-.19-.05-.31-.09-.01-.19-.03-.31-.04-.01-.1-.02-.2-.04-.32-.1-.02-.21-.03-.34-.06v-.66c-.13-.02-.24-.04-.37-.06v-.67h-.7c-.02.11-.03.21-.04.33h-.67c0-.1-.01-.2-.02-.32.12-.02.23-.03.35-.05v-.34h-1.4c-.01-.13-.03-.23-.04-.34-.11-.02-.21-.03-.32-.05-.01-.1-.03-.2-.04-.31h-.68c-.02.09-.04.19-.06.31h-1.01c-.01-.1-.03-.19-.04-.31h-1.42v.66h-.33c-.02-.11-.04-.21-.06-.34h-1.37c-.02-.12-.04-.21-.06-.33h-1.03c-.01-.13-.03-.23-.04-.35-.1-.02-.21-.03-.33-.05-.01-.1-.02-.2-.04-.32-.1-.02-.2-.03-.31-.05-.01-.1-.02-.19-.04-.31-.1,0-.19-.02-.31-.03-.02.12-.03.21-.05.33-.1.02-.21.03-.33.05,0,.1-.02.21-.03.33H.72c-.02-.1-.04-.21-.06-.35h-.66v-.68c.1-.01.2-.02.33-.04v-1.75c.13-.02.23-.03.34-.04,0-.11.02-.21.03-.32.11-.01.21-.02.32-.04.01-.1.03-.2.05-.33h1.03v-1.07c-.09-.02-.19-.03-.31-.05v-1.02c.1-.01.2-.02.32-.04.01-.11.02-.21.03-.33.11-.01.21-.02.32-.04.01-.1.03-.2.04-.31.1-.02.2-.03.32-.05.02-.09.03-.19.05-.31.09-.01.19-.02.32-.04.01-.23.02-.45.03-.68.11-.01.2-.02.32-.04v-.66h.71c.01.1.03.19.04.3h.32c.02-.11.03-.2.05-.32h1.02c.02-.13.03-.23.04-.35.1-.02.21-.03.34-.05v-1.39h.69c.01.09.03.19.04.32.22,0,.44.02.67.03.02.1.03.19.05.3.09.02.19.04.33.07,0,.23.01.47,0,.7-.02.25.03.41.34.36.02.11.03.21.05.32.11.01.21.03.33.04.01.1.02.2.04.32.1.01.2.03.33.04v.7h1.44v1.43h1.07c.01-.11.02-.21.04-.33.1-.01.2-.02.32-.03.02-.1.03-.21.05-.33h.65c.01.12.02.22.04.33.11.01.21.02.33.03v1.05h-.68c-.02.13-.03.24-.05.35-.1.01-.19.03-.31.04v1.03c.1.01.19.02.3.03.02.1.04.2.06.33h.68c.01.13.02.23.03.35.1.02.21.03.34.05.01.1.02.2.03.31.1.01.19.03.3.05.02.09.04.19.06.3.1.02.2.03.32.05v.67c.13.02.24.04.36.06.01.1.02.2.04.33h.66c.03.13.05.22.07.34.1,0,.19,0,.31.02v-1.05c-.08-.01-.18-.03-.3-.05v-.66c.09-.02.19-.03.3-.05.02-.1.04-.2.06-.31h1.74v1.04h.71c.02.14.04.25.06.37h2.1c.01-.11.03-.21.04-.33.1-.01.2-.02.32-.04.02-.1.03-.21.05-.33.11-.01.21-.02.34-.04v-.67c.12-.01.22-.02.33-.04.02-.11.03-.21.05-.33h1.03c.01.1.03.21.04.33h.69v-.69c.13-.01.22-.02.33-.04.02-.09.03-.19.06-.31.09,0,.19-.02.31-.03.02.11.03.21.05.33.09.01.19.02.3.04.02.1.03.2.05.32.09.01.19.03.31.04.01.1.02.2.04.32h1.4c.02-.1.04-.2.06-.33h1.37c.03-.13.05-.24.07-.35.1-.02.2-.03.32-.05v-.66c.13-.02.23-.03.34-.04,0-.11.02-.21.03-.34h.68c.02-.13.03-.23.05-.36h.67c.02-.16.03-.29.04-.42h0c.11.04.21.06.33.09,0,.09.02.18.03.29.09.02.19.03.3.05.02.1.03.2.05.32.1.01.2.02.32.04.01.1.02.2.04.32h.34c0-.1.02-.2.03-.33h1.04c.02-.13.03-.22.05-.36h1.03c.02-.13.04-.22.07-.34.09-.02.19-.03.3-.05v-1.04c-.11-.01-.21-.03-.31-.04-.01-.11-.03-.21-.04-.33h-2.13c-.01.11-.02.21-.03.34h-1.4c-.01.13-.02.23-.03.35h-.7v-.69c-.13-.02-.23-.03-.36-.05v-.66c-.13-.01-.23-.02-.35-.03v-.33c.1-.01.2-.03.32-.04.01-.09.03-.19.05-.31.09-.02.19-.04.3-.06.02-.09.04-.19.06-.3.09-.01.18-.02.3-.04v-1.75h-.67c0,.09-.02.18-.03.29h-.68c-.01-.1-.03-.18-.05-.29-.09-.01-.19-.03-.33-.05v-.7h-.72v-2.13c-.14-.01-.24-.03-.35-.04-.01-.11-.02-.21-.04-.34h-1.03c-.01-.13-.02-.23-.03-.36h-.7v-.69c-.13-.02-.23-.04-.35-.06v-.69h-1.42c-.02-.13-.03-.23-.04-.35-.1-.02-.2-.03-.32-.05,0-.08-.01-.17-.02-.28.12-.02.22-.04.35-.06v-.69h-.33c0,.11-.02.21-.02.33-.11.01-.21.02-.33.03-.02.1-.03.2-.06.32h-.3c-.02-.1-.03-.2-.05-.31-.09-.01-.19-.03-.31-.04v-.67c.09-.02.19-.04.31-.06v-.32c-.1,0-.2,0-.31-.01-.02.12-.04.22-.07.33h-.31v-1.4c-.13-.01-.23-.03-.36-.04v-.66c-.13-.01-.23-.02-.36-.03v-.69c-.13-.02-.23-.04-.36-.06v-.65c-.13-.02-.23-.03-.36-.05v-.69c-.13-.01-.23-.02-.35-.03-.01-.11-.02-.21-.03-.32-.11-.02-.21-.03-.32-.05-.02-.1-.04-.2-.06-.31h-1.39c-.02.1-.03.2-.05.31-.1.01-.2.02-.32.04-.02.11-.03.21-.05.32h-1.01c-.02-.1-.04-.21-.06-.33h-1.4v.69c-.13.01-.23.03-.35.04-.02.12-.05.25-.07.38h0c-.21-.02-.41-.03-.65-.05v-.69h-.76v.7c-.12.01-.21.02-.32.03-.02.1-.04.19-.07.32-.21,0-.42.02-.65.03-.01.11-.03.21-.04.32h-.31c-.02-.1-.03-.2-.05-.32h-.66c-.02.1-.03.2-.05.32h-1.03c-.02-.1-.03-.2-.05-.32h-.31c-.01.11-.03.2-.04.32h-.69v.72c-.13.02-.23.03-.35.05-.02.09-.04.19-.06.31-.09.01-.19.03-.3.05-.01.1-.03.19-.04.31-.1,0-.2.02-.32.03v-.68c-.12-.01-.22-.02-.36-.04,0-.1,0-.21-.02-.35h.71v-.7c-.1,0-.2-.02-.31-.03-.02.12-.04.23-.06.35h-.69v-.66c-.13-.02-.23-.03-.34-.05-.01-.11-.03-.21-.04-.34h-.69c-.01-.13-.02-.23-.03-.35-.1-.01-.2-.03-.32-.05-.02-.1-.03-.19-.06-.33h-1.73c-.02-.13-.03-.22-.05-.32-.1-.02-.2-.03-.33-.05v-.69c-.13-.02-.23-.03-.37-.04v-.66c-.14-.02-.24-.03-.37-.05v-1.04c-.13-.02-.23-.04-.34-.06v-2.09h.69v-.7c.13-.02.24-.04.36-.07.01-.09.02-.18.04-.3.09-.01.19-.03.31-.05.02-.1.04-.21.07-.34h.66c.01-.12.02-.22.03-.36h1.4c.01-.13.02-.23.04-.34.11-.01.21-.03.33-.04v-.68h-.7v-1.11h-.71v-.69c-.13-.01-.23-.02-.35-.03,0-.1-.01-.2-.02-.31.12-.02.23-.04.35-.06.01-.1.03-.2.04-.33h.67v-.71h-.68c-.01-.14-.02-.24-.03-.36h-.35c0,.1-.01.21-.02.33-.1,0-.2.01-.31.02-.02-.12-.04-.23-.06-.35-.09-.01-.18-.02-.3-.03-.01-.1-.03-.19-.05-.33h-1.38c-.02-.13-.03-.22-.05-.33-.1-.02-.2-.03-.33-.05v-3.55c-.13-.01-.23-.03-.35-.04v-1.03c.1-.01.2-.02.33-.04v-1.03c.13-.02.22-.03.36-.05v-2.46c.13-.03.23-.04.36-.07v-1.02c.13-.01.23-.02.36-.04v-1.76h.68c.02.11.04.21.06.33h.32c.01-.11.02-.21.03-.33.11-.01.21-.02.33-.04,0-.1.01-.2.02-.32-.11-.02-.21-.04-.33-.06-.02-.09-.04-.18-.07-.31h-1.38c-.01-.13-.02-.22-.03-.34.12-.01.22-.03.36-.04v-.67c.13-.02.23-.04.35-.06v-.68c-.11,0-.21-.02-.33-.03v-1.41c.11-.01.21-.02.33-.03,0-.11.02-.21.03-.33.1-.01.2-.03.33-.05V.36h1.42v2.12h.71c.01.12.02.22.03.35h1.42v-.69h.69c.02.1.03.2.05.32.09.01.19.03.31.05.01.11.02.21.04.33.11,0,.21.01.32.02.02-.12.03-.23.05-.36h.67c.02-.13.04-.23.07-.36h.64c.02-.12.04-.21.07-.33.09-.01.19-.03.31-.05,0-.09.02-.19.03-.31-.12-.02-.23-.04-.35-.06V.37c.11-.02.21-.03.33-.05.01-.11.02-.2.03-.32h1.39c.01.1.03.21.05.32.11.01.21.03.32.04.01.1.02.19.04.3.09.02.19.04.33.06,0,.23,0,.45,0,.68-.01.24,0,.45.36.38v.68c.13.01.23.03.36.04v.68c.13.02.23.03.35.05.02.09.03.19.05.3.28.11.37-.03.35-.32h1.74c.02-.12.04-.22.07-.34h1.37c-.04.33.16.35.43.34.81-.02,1.62,0,2.44,0,.02-.12.04-.23.07-.35h.3c.01.1.02.2.04.33h1.38c.02.12.04.22.07.34h.68c.02-.09.03-.19.05-.31h.66c0,.1.02.19.03.3.11.02.22.05.35.07v.67c.13.01.24.02.37.04v.66c.12.02.22.04.35.07v1.04h1.76c.02.12.03.22.05.33.1.02.2.04.34.06v.68h.7c.02.13.04.23.06.36h.66c.01-.1.03-.2.05-.32.09-.01.19-.02.32-.04.02-.1.03-.21.05-.34h.66c.03-.12.05-.22.07-.34.09,0,.17-.01.28-.02.02.11.03.21.05.33.1.01.2.03.32.04.01.1.02.2.04.32.1.01.21.03.33.05.01.1.02.2.03.33h.66c.01.12.03.22.04.34.11.02.21.03.34.06v.67c.13.01.23.02.37.03v1.42h2.13v.7h1.08c.01-.11.03-.2.04-.32h.27c.16.7.72.18,1.05.36,0,0,.02,0,.05.02.02.09.04.19.06.3.09.01.18.02.28.03.02.1.03.2.06.32.09.01.19.03.31.04v.67c-.1.02-.2.03-.31.05-.01.1-.03.19-.04.3-.09.02-.19.03-.3.05-.01.1-.03.2-.04.32-.1.01-.2.03-.32.04-.01.11-.02.21-.04.34-.11,0-.21.02-.33.03-.01.1-.03.2-.05.33h-.65c-.03.12-.05.22-.07.35h-1.37c-.03.14-.05.24-.08.37h-1.37c-.02.13-.04.24-.06.37h-.67c-.01.12-.02.22-.03.35h-.66c-.03.12-.05.22-.07.33h-1.73v-.66h-.74v.32c.11.01.21.03.33.04.01.1.03.19.04.31.1.02.2.03.32.05v.3c-.11.01-.21.02-.32.03,0,.11-.02.21-.03.35h-1.04c-.02.14-.03.23-.04.35h-2.11c-.01-.1-.03-.2-.04-.32-.09-.01-.19-.03-.32-.05v-2.47h1.03c.02-.13.04-.23.06-.37h.68v-1.43h.71c.02-.13.03-.23.04-.35.09-.01.19-.03.31-.05v-.33c-.1-.01-.19-.02-.31-.03-.01-.09-.03-.19-.05-.31-.1-.02-.21-.04-.33-.06v-.3c.1-.01.2-.02.32-.04.02-.1.03-.21.05-.33.1,0,.2-.02.31-.03v-.68c-.1-.02-.2-.03-.31-.05-.02-.09-.03-.19-.05-.31-.1,0-.2,0-.32-.01-.02.11-.03.21-.04.33h-.66c-.02-.1-.03-.19-.05-.3-.09-.02-.19-.03-.32-.06v-.68c-.13-.02-.23-.03-.35-.04-.01-.09-.03-.19-.04-.32h-1.06v.68c-.12.02-.22.03-.34.05-.01.09-.02.19-.04.32h-.68c-.02-.1-.03-.2-.06-.33h-1.04v-1.44h-1.06c-.01-.13-.02-.23-.03-.35-.11-.02-.22-.03-.34-.05-.01-.1-.02-.2-.04-.32h-.68c-.02.11-.04.21-.06.33-.09,0-.18.02-.3.03-.01.11-.03.22-.04.34-.11.01-.21.02-.33.03,0,.11-.02.21-.03.33h-1.4c-.01-.11-.02-.21-.03-.33-.11,0-.21-.02-.32-.03-.01-.1-.03-.2-.04-.33-.09-.01-.19-.03-.3-.05-.02-.1-.04-.21-.06-.32h-1.04c-.01.12-.02.22-.04.34h-.66c-.02.13-.04.24-.06.37h-.68v.68c-.13.02-.24.03-.36.05-.01.11-.02.21-.04.34h-.66c-.01.13-.02.23-.03.35-.11.01-.22.03-.34.04v.68c.11.02.22.04.35.06v1.73c.12.02.21.04.32.05.02.1.04.2.05.31.1.01.2.03.31.04v1.39c-.1.01-.2.02-.33.03v1.01c-.12.02-.22.04-.34.07-.01.09-.02.19-.04.31-.1.01-.21.03-.33.05,0,.1-.02.2-.03.33-.1.01-.21.03-.34.05-.01.1-.02.2-.04.31-.11.02-.21.03-.31.05-.02.1-.03.19-.05.29-.1.02-.19.03-.3.05-.01.11-.02.2-.04.33h-1.04c-.02.13-.04.24-.06.38h-1.03c-.01.12-.02.22-.04.34-.11.01-.21.03-.34.05v.66c-.13.02-.22.03-.35.05v1.01c-.12.02-.22.04-.34.06,0,.36,0,.73,0,1.1-.13,0-.25-.02-.4-.03,0,.13.01.22.02.34h.34c.01-.11.02-.22.03-.32.1,0,.2-.01.32-.02v.68c-.11.01-.21.03-.33.04v.69c-.13.01-.23.02-.35.04v1.04c.11.01.21.02.33.03.01.11.02.21.03.34h.66c.02.12.04.22.06.34.1.02.2.04.33.06,0,.09.01.18.02.29.12.02.22.04.34.06v.67c-.11.01-.22.03-.34.04v.68c.23.01.45.02.69.04.01.11.03.21.05.34h1.05v.71h3.22c.01-.11.02-.21.04-.33.09-.01.19-.02.32-.04.02-.1.04-.21.06-.33.09-.01.18-.02.3-.04.02-.09.03-.19.05-.31.09-.02.19-.03.31-.05.01-.09.03-.19.05-.32h.66c.02-.13.04-.24.07-.36h1.03c0,.11.02.21.03.32.1.01.2.03.32.04.02.1.04.2.06.31h1.03v-1.05c-.1-.01-.2-.02-.33-.04,0-.1-.01-.19-.02-.32h1.41v.69h1.79c.02.13.03.23.05.37h.66c.02.13.04.22.06.33.1.01.19.03.3.04.01.1.03.19.05.32h1.03c.02.14.04.24.07.38h.66c.01.12.03.22.04.35.22,0,.44.02.68.03.02.11.03.21.05.33h.67v.34c-.11.01-.21.02-.33.03,0,.11-.01.21-.02.33h.73c0-.11.02-.21.03-.32h.32c.01.11.03.21.04.33h1.41v-1.04c-.11-.01-.2-.03-.33-.05v-.68c.1-.01.2-.02.32-.03.01-.1.03-.2.05-.34h.66c.02-.13.03-.23.05-.34h.67c.02.1.03.2.05.31.1.02.2.04.33.07v1.05h1.08v1.79h.68c.01.12.03.21.04.33h2.13c.01-.08.03-.18.05-.31.09,0,.19,0,.29-.02.02.12.04.22.06.33h.33v-.67c.12,0,.21-.01.32-.02.02.11.03.21.05.33.1.02.21.04.33.06v.67c-.11,0-.22.02-.34.03v.33c.11.02.22.03.34.05v3.53c-.11.01-.21.02-.33.03v2.15h1.4v1.05c.13.02.23.03.35.04.02.1.03.21.05.34.1,0,.2.02.32.03,0,.1,0,.2.01.31-.12.02-.22.03-.34.05-.01.1-.03.19-.04.31-.1.01-.2.02-.33.03,0,.1-.02.2-.03.34.12,0,.23.01.36.02.02-.12.03-.22.04-.33h.31c.01.1.03.2.04.31h.67c.02-.1.03-.2.05-.32h1.38c.01.11.02.2.04.32h.69c.01-.08.03-.18.05-.3.09-.01.19-.03.31-.05.02-.1.03-.2.05-.31.08,0,.17-.01.28-.02.02.11.04.21.06.32.1.02.21.04.33.06v.29c-.1.01-.2.02-.34.04v.67c-.13.02-.23.04-.35.06v1.03c.1.01.2.02.31.04.01.1.02.2.03.32.11.02.22.03.34.05v.66c-.11.01-.21.02-.33.03-.01.11-.02.21-.04.34h-1.03c-.01.13-.03.24-.04.37-.11,0-.21.02-.32.03-.02.1-.03.2-.05.31h-.64c-.02-.09-.04-.19-.06-.31-.09-.01-.19-.02-.31-.04-.01-.1-.03-.21-.05-.34-.1,0-.2-.02-.32-.03-.01-.11-.03-.21-.04-.32-.1-.02-.2-.03-.31-.05-.01-.1-.03-.2-.04-.31-.11-.02-.21-.03-.33-.05v-.66c-.12-.01-.22-.02-.34-.04-.01-.11-.03-.21-.05-.34h-1.4v.68c-.14.02-.24.04-.37.06-.01.1-.03.19-.04.3-.11.01-.21.03-.33.04v.69c.11.01.21.02.34.04,0,.13-.02.25-.03.37h0c-.45,0-.91,0-1.38,0-.02-.14-.03-.23-.04-.36-.1-.02-.21-.03-.34-.06v-.67h-1.43c-.01.1-.03.2-.04.32-.1.01-.2.02-.33.03v.69c-.13.02-.23.03-.34.04v1.39c.11.01.2.03.31.04.01.1.03.2.05.33h1.03c.02.13.03.23.05.36h.65c.02.13.03.23.05.35h.33c.01-.1.02-.2.04-.32.1,0,.2-.01.32-.02.02.12.03.22.05.35h2.47v.71c.14.02.24.03.37.05v.67c.13.01.23.02.35.03.01.11.02.21.03.33.1.01.2.03.31.04.02.11.03.21.05.34h1.75c.01.12.02.21.04.34.23.01.46.02.7.04.01.11.02.2.03.31.1.02.19.03.3.05.02.1.03.2.05.33h.68c.01.13.02.23.03.35.11.01.21.02.33.04.01.09.03.19.04.32.21,0,.42.02.65.03.02.1.04.2.06.33h.69c.01.13.02.23.03.35-.12.02-.23.03-.36.04v1.4c.11.01.21.02.33.03v1.04h-.7v.71c-.13.02-.23.03-.34.05-.01.09-.02.18-.04.31h-1.38c-.02.13-.04.23-.06.34-.09.02-.19.03-.32.05v.7h-2.15c-.02.12-.03.22-.05.34h-2.46c0-.1-.02-.2-.03-.32h-.67c-.02-.13-.04-.24-.06-.36-.1-.01-.19-.02-.3-.03v-1.03c.1-.01.19-.02.31-.04v-.69c-.1-.01-.19-.03-.31-.04-.02-.09-.03-.19-.05-.33h-1.39c-.02-.13-.03-.22-.04-.33h-1.06c-.01.09-.03.18-.04.3h-.66v-.66h-.75v.66c-.13.02-.22.03-.34.05-.01.11-.03.21-.04.32-.1.01-.19.02-.31.03v.69c-.14.02-.24.04-.37.06v1.39c-.13.02-.24.03-.36.04-.01.1-.02.2-.04.32h-1.02c-.02.12-.03.22-.05.34-.1.01-.2.02-.35.04,0,.37,0,.74,0,1.1h0Z"/>
  </g>
</svg>