<?xml version="1.0" encoding="UTF-8"?>
<svg id="Layer_2" data-name="Layer 2" xmlns="http://www.w3.org/2000/svg" viewBox="0 0 56.75 64.49">
  <defs>
    <style>
      .cls-1 {
        fill: #fff;
      }
    </style>
  </defs>
  <g id="Layer_1-2" data-name="Layer 1">
    <path class="cls-1" d="M35.76,56.77h-.36v-1.45c.11-.01.22-.03.34-.04v-.34c-.1-.01-.21-.02-.33-.04-.02-.1-.03-.21-.05-.34-.1-.01-.2-.02-.32-.04-.02-.11-.03-.21-.05-.33h-.69v1.09h-1.46c-.02.14-.03.24-.05.34-.11.02-.22.03-.34.05v.69h-1.09c-.01-.1-.02-.21-.04-.34h-.72c-.01.12-.02.22-.03.34-.11.01-.21.02-.33.04-.02.11-.04.22-.06.35-.1,0-.19.02-.31.03-.01.1-.03.2-.04.32-.11.02-.21.03-.33.05-.01.11-.02.21-.04.32-.11,0-.22.02-.34.03-.01.11-.02.21-.04.33-.11.02-.22.03-.34.05-.01.11-.02.21-.04.35h-.69v2.18c-.14.02-.25.03-.38.04v2.92h-1.09v.74h-.72c-.02-.1-.04-.21-.06-.34h-.32c-.02.11-.03.21-.05.33-.09.01-.2.03-.31.05-.01.1-.02.2-.04.33h-1.06c-.02-.1-.03-.2-.06-.33h-1.08c-.01.1-.02.2-.04.33h-.31c-.02-.11-.03-.21-.05-.33-.11-.01-.21-.02-.33-.03,0-.11-.02-.21-.03-.34-.11-.01-.21-.03-.33-.04-.02-.1-.03-.21-.05-.33-.11-.02-.21-.03-.32-.05-.01-.1-.03-.19-.04-.3-.1-.01-.2-.03-.31-.05-.02-.11-.03-.21-.05-.33-.1-.01-.21-.02-.33-.03,0-.11-.02-.21-.03-.35h-.71c-.02-.13-.03-.24-.05-.35-.1-.02-.2-.03-.32-.05-.02-.1-.03-.19-.06-.32h-.69c-.01-.14-.03-.24-.04-.37h-.71v-1.1h-1.09c-.02-.14-.03-.24-.05-.36-.1-.01-.2-.03-.32-.04-.02-.11-.04-.22-.06-.35h-.7v1.06c-.13.02-.24.03-.37.05v.71c-.13,0-.23.02-.35.02-.02-.13-.04-.24-.06-.37h-1.06c0,.11-.02.21-.03.34h-.72v-.7c-.14-.02-.24-.03-.35-.05v-.3c.11-.01.21-.03.33-.04v-.71c-.11-.01-.21-.02-.33-.04-.01-.11-.02-.21-.04-.35h-.7c-.02-.13-.03-.22-.04-.33-.1-.02-.2-.03-.31-.05-.02-.11-.04-.21-.06-.34h-1.06c-.01-.13-.02-.23-.03-.37h-2.17c-.02-.14-.03-.24-.04-.36-.11-.01-.22-.03-.33-.04-.01-.11-.02-.21-.04-.34h-1.06c-.02-.12-.03-.22-.05-.35h-1.07c-.02-.14-.03-.25-.04-.36-.11-.01-.21-.03-.32-.04-.01-.11-.02-.21-.04-.33-.11-.01-.21-.03-.33-.04-.01-.1-.02-.21-.04-.32-.11-.02-.21-.03-.34-.05v-.33h2.55v-.71c.13-.02.23-.04.35-.06v-2.17c-.1-.01-.2-.03-.33-.04v-.69c-.13-.02-.23-.04-.36-.06v-1.78c-.13-.02-.24-.04-.36-.06v-1.06h.68c.02-.13.03-.23.05-.36h1.06c.02.12.03.22.05.33h1.43c.02-.1.04-.2.06-.32.09-.02.19-.04.32-.06,0-.22.02-.44.03-.68.11-.01.21-.03.35-.05v-1.07h2.93v-2.21c-.09-.01-.19-.03-.31-.05-.02-.11-.04-.22-.06-.36h-.69c-.01-.13-.02-.23-.03-.34-.11-.02-.21-.03-.35-.05v-2.53c-.14-.02-.24-.03-.35-.04-.02-.11-.03-.21-.05-.33-.11-.01-.2-.03-.31-.04-.02-.09-.03-.19-.06-.31-.1-.01-.2-.03-.34-.05v-.7c-.13-.02-.24-.03-.36-.04v-.68c.1-.01.2-.03.32-.05.02-.1.03-.21.05-.35h.69v-.37h-1.46v.7h-.33c-.01-.1-.02-.2-.04-.31-.11-.02-.22-.03-.34-.05v-.69c.1-.02.2-.04.32-.06.02-.09.04-.19.06-.31.09-.01.19-.03.33-.05v-1.41c.13-.02.23-.04.35-.06v-1.07c-.1-.02-.2-.03-.32-.05-.02-.1-.04-.2-.06-.31-.1-.02-.2-.03-.32-.05-.01-.1-.02-.19-.03-.32h-.71v-1.09c.11-.02.21-.03.34-.05.01-.1.02-.21.04-.33.1-.01.21-.02.33-.04.02-.11.04-.22.06-.35h1.05v-1.1c-.11-.01-.21-.02-.33-.04v-1.06c.12-.02.22-.03.34-.05v-1.45c-.11-.01-.21-.02-.34-.04v-1.06c.11,0,.22-.02.34-.03,0-.11.01-.21.02-.33-.12-.02-.23-.04-.37-.06v-1.05h-1.08c-.02-.14-.03-.25-.04-.39h-1.06c-.01-.12-.03-.22-.04-.34h-.34c0,.1-.02.19-.03.32h-.73v.76h-1.08c-.02-.11-.03-.22-.05-.36h-1.8c-.02-.13-.03-.23-.05-.35-.1-.02-.2-.03-.32-.06v-1.41c.11-.02.2-.03.33-.05v-1.78c.14-.02.24-.04.36-.06v-.7h-1.06c-.01.11-.02.21-.04.33h-.71c-.01-.11-.02-.22-.04-.33-.11-.01-.21-.02-.32-.04v-.33c.11-.01.2-.03.32-.04,0-.1.01-.2.02-.32-.12-.02-.21-.04-.35-.07v-1.05h-.74c0,.12-.01.22-.02.34h-.7c-.02-.11-.03-.21-.05-.34-.1-.01-.2-.03-.32-.04-.01-.11-.02-.21-.03-.33-.11-.02-.21-.03-.34-.05,0-.09-.01-.18-.02-.29.12-.02.23-.04.36-.06.01-.11.02-.21.04-.33.11,0,.21-.02.33-.03v-1.82c-.1-.01-.2-.03-.34-.05v-1.43c-.14-.01-.24-.02-.37-.04v-.7c-.13-.02-.24-.04-.36-.06v-.68h.69c.02-.14.04-.24.06-.37h.66c.02-.13.04-.23.07-.37h1.05c.02-.14.04-.24.07-.37h.7v-1.03c.25-.23.79.2.77-.44.1,0,.2-.02.31-.03.01-.11.03-.21.05-.33.1-.02.21-.03.34-.05.01-.11.02-.21.03-.34h.69c.03-.12.05-.22.07-.34.09-.02.19-.03.3-.05.02-.11.03-.21.05-.33h1.04c.03-.13.05-.24.07-.36.1-.01.2-.02.31-.04.01-.11.02-.22.04-.34.11-.01.22-.02.34-.04v-.7h-.67c-.03-.14-.05-.25-.07-.37-.11,0-.21-.02-.34-.03v-.72c-.13-.01-.23-.03-.35-.04-.02-.11-.03-.21-.05-.34h-1.06c-.01-.13-.02-.23-.04-.35-.12,0-.22-.02-.34-.03v-1.07c.11-.01.21-.03.33-.04.01-.11.03-.21.04-.35h.69c.02-.14.03-.24.04-.36h.69c.02.1.03.21.06.35h.67c.02.13.03.23.04.35h.72v-1.06c.13-.02.23-.04.35-.06.02-.1.04-.2.06-.33h.67c.02-.13.03-.23.05-.37h1.81c.01-.14.02-.24.03-.36h1.43c.02.1.03.21.05.34h1.44c.01-.12.02-.22.03-.34.11-.01.21-.02.33-.03.01-.1.03-.2.05-.33.1-.02.2-.04.32-.06.02-.1.04-.2.06-.32h.67c.02-.13.03-.23.05-.36.1,0,.2-.01.32-.02.02.12.04.23.06.36h.7v-1.07c.13-.02.24-.03.35-.05.02-.1.03-.2.05-.33h1.42c.02-.13.03-.23.06-.37h.69c.02-.14.03-.24.05-.36h.68c.01.1.03.21.05.34h1.04c.02.12.04.22.06.34.1.02.2.03.32.05.01.09.03.2.05.31.1.01.2.03.33.05v1.44h-.69c-.02.13-.04.24-.07.37-.1.01-.2.02-.31.04v.34c.1.01.2.02.31.04,0,.21.04.44.36.35.02.12.03.22.05.33.1.02.2.03.33.05.01.1.03.2.05.34h.68c.02.14.03.24.05.37.11,0,.21,0,.33.02v-1.45c-.11-.02-.21-.03-.32-.05v-.34h1.05c.02-.13.04-.24.06-.36h3.24c.02.11.03.21.05.33.09.01.2.03.32.05,0,.1.01.2.02.32-.12.02-.22.04-.34.05-.01.1-.02.19-.04.31-.23.01-.46.02-.7.04-.01.12-.03.22-.04.33-.12.01-.22.02-.34.03v1.82h.71c.02.14.04.25.06.38h1.06c.01-.12.02-.22.03-.34.11-.01.21-.02.34-.03.01-.1.03-.2.04-.32.1-.02.21-.04.33-.07.01-.1.03-.19.04-.31.34.04.35-.17.35-.43-.01-.71,0-1.43,0-2.17h2.91c.03-.13.05-.23.08-.35.09,0,.18-.01.29-.02.02.12.04.22.06.35h1.8c.02.13.03.23.04.37h.69c.02.14.04.24.05.36.1.01.2.03.34.04v.67c.13.02.23.04.37.06v.7h.71c.03.13.05.24.08.37h.68c.01-.1.03-.2.05-.33.11-.02.22-.03.34-.05,0-.11.02-.21.03-.34h.68c.02-.12.04-.22.06-.35.09-.02.19-.03.31-.05.02-.1.03-.2.05-.31.11-.01.21-.03.33-.04.01-.1.02-.21.04-.33h.68c-.02.64.5.21.76.4,0,.06.02.16.04.29.1.01.2.03.34.04v.71c.13.01.22.02.34.03.01.1.03.2.05.33.1.02.2.03.32.05.01.09.03.19.05.31.11.02.21.03.33.05.01.1.03.2.04.32.1.01.2.03.32.04.02.1.03.21.06.35h1.06c.01.13.02.23.03.35h.71c.02-.12.03-.22.05-.34h1.77c.01.1.03.2.05.32.11.02.22.04.34.06,0,.09.02.19.03.31h2.2v-1.06h.71c.01.1.02.2.04.33.11.01.22.03.35.05.01.1.02.21.03.33.1.02.2.03.33.05v.3c-.11.01-.21.03-.34.04v.72c-.13.01-.23.02-.36.03-.01.1-.03.2-.05.33h-.66c-.03.13-.05.23-.07.35-.22.01-.45.02-.7.03v.72c.11,0,.21.02.35.03v.69c.13.02.24.04.36.06v.68c-.1.01-.2.02-.32.04-.01.11-.03.22-.04.34h-.68c-.02-.11-.04-.22-.06-.33-.1-.01-.2-.03-.32-.04,0-.11-.02-.21-.03-.34h-.36v.72h-.71c-.02.12-.04.22-.07.34h-1.03c-.02-.09-.04-.19-.06-.32h-.66c-.02-.13-.04-.23-.06-.36-.09-.01-.2-.03-.32-.04-.01-.1-.03-.21-.05-.34-.1-.01-.21-.02-.33-.04v-1.05c.1-.01.2-.02.33-.04v-.71c-.1-.02-.21-.04-.33-.06-.02-.11-.03-.21-.04-.29h-1.45.01c-.01-.12-.02-.24-.04-.38-.11-.01-.21-.02-.35-.03v-.71c-.13-.02-.23-.04-.35-.06-.01-.1-.02-.19-.04-.31-.24-.01-.46-.02-.72-.03v-.71h-.73c-.02.11-.04.22-.06.35h-4.73c-.01-.11-.03-.22-.04-.36h-.71c-.01-.14-.02-.24-.03-.36-.11-.01-.21-.03-.33-.04-.01-.1-.03-.19-.05-.3-.09-.02-.19-.04-.34-.07v-.69h-1.83c-.01.12-.02.22-.04.34-.11.01-.21.03-.33.04-.01.1-.03.2-.04.31-.1.02-.21.03-.33.05-.02.1-.03.2-.06.33h-.67c-.02.13-.04.23-.05.36-.1.02-.21.03-.34.06v.68c-.13.02-.24.04-.37.06-.01.1-.02.19-.04.32h-.67c-.03.14-.05.25-.07.38h-.68c-.02.13-.03.24-.05.38h-.68c-.02.12-.04.22-.06.35-.22.01-.45.02-.7.04,0,.11-.02.2-.03.31-.1.01-.21.03-.35.05,0,.1,0,.21-.02.33.13.02.23.03.35.04.01.1.02.21.04.33.11.01.22.03.35.05.01.1.02.21.03.33.1.02.2.03.33.05.01.22.02.44.03.68.11.02.21.03.34.05v.7h.73c.02.13.03.23.05.35.09.02.19.04.31.06.02.09.04.2.06.31.09.01.18.02.3.04v1.8c-.09.01-.19.03-.32.05v.68h-.71c-.02-.1-.04-.2-.06-.33h-.67c-.02-.13-.03-.23-.05-.37h-.7c-.02-.13-.03-.24-.04-.36-.09-.02-.2-.03-.32-.05-.02-.09-.04-.19-.06-.33-.21,0-.43-.02-.67-.03-.02-.1-.04-.2-.06-.32-.1-.01-.2-.02-.32-.04-.02-.11-.03-.22-.05-.34h-.35v.68c-.13.02-.23.04-.35.06-.02.1-.03.2-.05.32-.1.01-.2.03-.31.05-.01.11-.02.21-.03.33-.11.01-.21.02-.34.03-.01.11-.03.22-.05.34-.1.01-.21.02-.33.04-.02.1-.03.2-.05.32-.09,0-.18,0-.29.01-.02-.12-.04-.22-.06-.34h-.68c-.02-.13-.03-.24-.05-.38h-1.42c-.02-.13-.03-.24-.05-.37h-.71c-.01.11-.03.22-.04.34h-.31c-.01-.11-.02-.21-.03-.34h-1.06c-.02-.13-.04-.23-.07-.37h-.67c-.02-.13-.04-.23-.05-.35-.11,0-.21,0-.33-.01-.02.11-.03.22-.05.33h-2.15c-.02-.11-.04-.21-.06-.32-.1-.01-.2-.02-.31-.03-.02-.11-.03-.22-.05-.35-.11,0-.21-.02-.35-.03v-.71c-.13-.02-.23-.03-.35-.05-.02-.1-.03-.19-.05-.31h-1.44c-.02.1-.03.2-.05.31h-.66c-.02-.09-.04-.19-.06-.32h-2.17c-.01.1-.03.2-.05.32h-.66c-.02-.09-.04-.19-.07-.31h-.7c-.01.1-.02.2-.04.31-.11.01-.22.03-.34.04v1.82h.71c.02.14.03.24.05.37h2.09c.23.24-.21.79.44.77.01.1.02.19.04.31.11.02.22.04.36.07v.7c.13.01.24.02.35.04.02.12.03.22.05.33.1.02.19.03.31.05v.67c-.1.01-.2.03-.33.05v.68c-.13.02-.23.04-.35.06v1.44c.1.01.2.03.32.04.02.1.03.2.05.32.1.02.19.03.32.06v.69c.14.01.24.03.36.04v.33c-.11.01-.21.03-.35.05v2.53c-.12.02-.22.03-.33.04v1.45h.68c.01.13.03.23.04.37h1.06c.02.13.03.23.04.34.11.02.22.04.34.07v1.05c-.1.01-.2.03-.32.05-.02.09-.04.19-.06.31-.1.02-.2.04-.31.06v1.07c.11.01.2.02.33.03v.68c.15.02.25.04.36.06v.69c-.11.01-.21.02-.33.03v.34h.71c.01-.11.02-.21.04-.34h.7c.02-.13.04-.23.06-.36.09-.02.19-.03.32-.06.01-.1.02-.2.04-.33h.69c.02-.13.04-.23.06-.35.09-.01.19-.03.33-.05.01-.23.02-.46.04-.7.11-.02.21-.03.32-.05.01-.1.02-.2.04-.32.09,0,.19-.02.32-.03.02.12.03.22.05.35h.35c.01-.1.02-.21.04-.34h.68c.02-.13.04-.23.06-.35h1.4c.02.09.04.19.07.33h1.4c.02.13.04.23.07.36.09.01.19.03.33.05,0,.22.02.45.03.7h.72c.01-.1.03-.2.04-.33h.68c.01.09.03.19.05.32h3.29c.01-.1.03-.2.04-.33.11-.01.21-.02.33-.03.02-.11.03-.22.05-.34.11-.01.21-.02.34-.04v-.7h.7c.02-.13.03-.23.05-.36.1-.01.2-.02.33-.04.01-.1.03-.21.05-.34.1-.01.21-.02.32-.03.02-.11.03-.21.05-.32.1-.02.2-.04.34-.06v-.67c.13-.02.24-.03.35-.05.01-.11.02-.21.03-.34.11-.01.21-.02.34-.04.01-.1.03-.2.04-.32.1-.02.21-.04.34-.06.01-.1.02-.19.04-.31.1-.01.2-.03.33-.04,0-.11.01-.21.02-.33-.12-.01-.23-.03-.34-.04-.01-.11-.02-.21-.04-.34-.1-.01-.2-.02-.33-.04v-.69c.1-.01.2-.03.32-.04.01-.11.03-.21.05-.33.1-.01.2-.02.32-.04.02-.11.03-.22.05-.34h.31c.01.11.02.22.03.34.11.01.22.02.34.04.01.1.03.2.05.34h2.51c.02.13.04.23.06.36.11,0,.21.01.33.02.02-.12.04-.22.06-.36h2.16c.02-.14.04-.24.06-.37h.68c.01-.13.03-.23.04-.36h1.06c.02-.14.04-.25.07-.37h1.4c.02.11.04.21.06.34.09.01.2.03.34.04v.69c.14.02.24.04.38.06v.69c.14.01.24.02.36.03v1.44c-.12.01-.22.02-.34.03,0,.11-.02.22-.03.35h-1.06c-.02.13-.04.23-.06.37h-.72v.73h-.7c-.02.14-.03.25-.05.38h-.69c-.02.12-.03.22-.05.36h-1.06v1.48c.11.02.21.03.33.05v.68c-.11.01-.2.02-.32.03-.01.11-.03.22-.04.35h-.69c-.02-.1-.04-.21-.06-.35h-1.79c-.02.11-.04.23-.06.35h-2.17v-1.44c-.14-.01-.24-.02-.37-.04v-.71c-.12-.02-.22-.03-.33-.05-.02-.09-.04-.19-.07-.32h-.68c-.01.09-.03.19-.05.31-.1.01-.21.03-.35.04v1.06c-.13.02-.23.04-.37.06v1.07h-2.19v.71h-.73c-.02-.09-.03-.19-.06-.32h-1.05c-.02-.13-.03-.24-.04-.36h-.35c-.01.11-.03.21-.04.34h-1.06v.72c-.14.01-.24.02-.36.03-.02.12-.03.23-.05.35h-.68c0-.11-.02-.22-.03-.34h-2.21v1.07h-.33c-.02-.11-.04-.21-.07-.32h-1.05c-.02.1-.04.19-.06.32h-.67c-.01-.1-.03-.2-.05-.32h-1.04c-.03-.13-.05-.24-.08-.36-.1-.01-.2-.02-.31-.03-.01-.12-.02-.22-.04-.34h-1.48v.71c-.13.02-.22.03-.33.05-.01.1-.03.2-.05.31-.11.01-.22.03-.33.04v.34c.11.01.21.02.33.04.01.1.03.2.05.34h3.25c.03.14.05.25.07.37.1.01.19.02.31.03.01.1.02.2.04.35.41,0,.81,0,1.21,0,1.43,0,2.85,0,4.28,0,.26,0,.47,0,.43-.36h1.07v1.08h1.84v.71c.13.03.23.05.36.07v.67c.13.02.23.03.36.04v1.82c-.1,0-.2.02-.32.03-.02.11-.03.21-.05.32-.1.02-.19.03-.3.05-.02.09-.04.19-.07.32h-.67c-.02.14-.04.25-.06.38-.11,0-.21.02-.33.03v.71c.11.02.21.03.33.05v1.43c-.12.01-.22.03-.35.04v.68c-.13.01-.23.02-.34.04-.02.11-.03.21-.05.34-.1.01-.2.03-.32.05,0,.1-.02.2-.03.33h-1.44c-.01-.11-.03-.22-.04-.34h-.69c-.02-.13-.04-.24-.06-.37-.1-.01-.2-.03-.31-.04-.01-.11-.03-.21-.04-.33-.11-.02-.22-.03-.34-.05v-.68c-.13-.01-.23-.02-.36-.03v-1.07c-.13-.02-.23-.03-.36-.05-.01-.22-.02-.45-.03-.7-.11-.01-.21-.03-.33-.04-.01-.11-.03-.21-.04-.34h-1.08v.71h-.72c0-.11-.02-.21-.03-.34-.11-.01-.21-.02-.35-.04v-1.05c-.13-.01-.23-.03-.37-.04v-.7c-.13-.02-.23-.04-.35-.06-.02-.09-.04-.19-.06-.32h-1.44c-.01.11-.03.21-.04.33-.1,0-.19.02-.31.03-.02.11-.04.22-.06.35-.1.01-.2.03-.32.04,0,.11-.02.22-.03.34-.11.01-.21.02-.34.03-.01.1-.03.2-.05.33-.22.01-.45.02-.7.03-.02.11-.04.21-.05.33-.1.01-.19.02-.31.03v1.09c.1.01.19.03.32.05v1.78c.14.02.24.04.35.06.01.09.02.19.04.33h1.09v1.1c.13.02.22.03.34.04v.7c-.1,0-.21.02-.32.03v.35h.7v.72h-1.05c-.01.14-.03.25-.04.38-.11,0-.22.02-.34.03v.35c.11,0,.21.02.34.03v1.06c-.11.01-.21.02-.35.03v.69c-.14.02-.24.03-.36.05v.32c.1.02.21.03.33.06v.7c-.1,0-.2.02-.33.03-.01.1-.03.2-.05.33h-.67v.74c.1,0,.19.02.32.03v1.83h2.2c.01.12.02.22.04.36.1,0,.21,0,.34.02.01-.12.02-.23.04-.36h2.16c.02-.13.03-.24.05-.36h.32c0,.11.02.21.03.35h.71c.02.13.03.23.05.37h.68c.02.13.03.23.04.37h.7c.02.13.03.22.05.34.09.02.19.04.31.06.02.1.03.21.05.34h2.57v1.07c.12.02.22.04.35.07.01.22.02.45.03.7h.7c.02.12.03.22.05.35.11.02.22.04.34.06.01.1.02.2.04.33h.66c.02.12.04.22.06.35.1.02.21.03.34.05,0,.11.02.21.03.33h.36c0-.11.02-.21.03-.33.11-.01.21-.02.35-.04v-.69c.38.03.4-.19.38-.46-.02-.21,0-.42,0-.65.13-.02.23-.03.36-.05v-.7h.73c.02-.14.03-.24.04-.36.1-.01.21-.03.32-.04.02-.1.03-.21.05-.33.1-.02.2-.03.31-.05.02-.11.03-.21.05-.31.11-.02.22-.03.34-.05v-.69c.13-.01.24-.03.38-.04v-.7h1.1v.71c.14.01.24.02.36.03.01.11.02.22.03.34h.34v-1.8c.13-.02.23-.03.35-.05.01-.1.02-.2.04-.34h.72v-.71h.35v1.41c-.11.02-.2.03-.31.05-.02.1-.03.2-.05.31-.11.01-.21.02-.33.04,0,.11-.02.21-.02.33.12.02.23.04.36.06.01.1.02.21.04.34h1.44c.01.13.02.23.03.35.11.02.21.03.32.05.02.1.03.21.05.32.1.02.2.03.3.05.02.1.03.2.05.32.11.01.21.03.33.05.01.1.02.21.04.34h1.82c.01.14.02.24.04.36h1.06c.01-.1.03-.2.05-.33.1-.02.21-.03.34-.05,0-.11.02-.21.03-.33.11-.01.22-.02.33-.04.02-.11.03-.21.05-.34h.67c.02-.13.03-.23.05-.35.11-.01.21-.02.33-.04.01-.11.02-.21.04-.35h1.44c.01-.13.02-.24.04-.36h.7v1.05c.14.03.24.05.37.07v.68c.14.01.24.02.36.03.01.11.02.21.03.33.11.02.22.03.35.05,0,.11.02.21.03.33h1.07c.01-.11.02-.22.04-.33.11-.01.22-.02.34-.03.01-.11.02-.21.04-.34.1,0,.2-.01.31-.02.02.12.04.22.06.35.09.02.19.04.33.06v.67h.74v-1.44c-.11,0-.21-.02-.33-.03v-.68c.1-.01.2-.03.33-.04.02-.11.03-.22.05-.35h.68c.02-.12.04-.22.06-.35.09-.02.19-.04.31-.06.01-.1.03-.2.04-.31.11-.02.21-.03.33-.05.01-.1.02-.2.04-.32.11-.01.21-.02.33-.04.02-.26.04-.51.06-.76h0c.47,0,.93,0,1.42,0,.02.14.03.24.05.38h1.05c.02.14.04.25.06.38h1.42c.02.12.03.22.05.36h1.43c.02.14.03.24.04.36.11.01.22.02.34.03.01.11.02.21.04.34h.67c.02.13.04.24.05.37.12.01.22.03.33.04v.69c-.11.01-.21.02-.33.03-.02.12-.04.23-.06.37h-.67c-.01.13-.02.23-.04.37h-.71c-.02.12-.03.21-.05.33h-.67c-.01-.09-.03-.19-.05-.31-.11,0-.21,0-.33-.02-.02.12-.03.22-.05.34-.1.01-.21.02-.34.04v.71c-.14.01-.24.02-.35.03-.02.11-.03.21-.05.35h-1.06c-.02.13-.03.23-.05.35h-.66c-.02-.1-.04-.2-.06-.32-.1-.01-.2-.02-.33-.04-.01-.1-.02-.2-.04-.33h-.35c-.01.09-.02.2-.04.32-.1.01-.2.03-.31.05-.11.28,0,.39.31.36v.7c-.22,0-.44.02-.68.03v.34c.11.02.21.03.32.05v1.04c-.1.02-.2.03-.32.05-.01.11-.02.21-.03.33h-.71c-.01-.11-.02-.21-.04-.34h-1.07c-.01.11-.02.22-.03.34h-.69c-.02-.11-.04-.23-.06-.36h-.68c-.01-.13-.02-.23-.03-.35-.11-.02-.22-.04-.34-.06-.02-.11-.03-.21-.05-.32h-2.55v1.1h-.73c-.01.13-.03.23-.04.36h-1.04c-.02.12-.04.22-.06.35h-1.05c-.01-.1-.03-.2-.04-.32h-.73v.7c-.13.01-.23.02-.35.03-.02.12-.04.23-.06.35h-.68c0-.12-.02-.22-.03-.35h-.73v.69c-.13.02-.22.04-.33.06-.02.09-.04.2-.06.32h-.69v.75c.11,0,.21.01.34.02v.69c-.11.01-.22.02-.34.04-.01.12-.02.22-.03.34h-.32c-.02-.11-.03-.21-.05-.33-.11-.02-.21-.04-.32-.06v-.66c.1-.02.2-.03.33-.05,0-.1.01-.2.02-.32-.12-.02-.22-.04-.35-.06v-.66c-.14-.03-.25-.05-.37-.08v-.7h1.81c.01-.15.02-.28.03-.4.23.01.46.02.69.03.02-.14.04-.24.06-.34.12-.02.22-.03.33-.05.01-.12.02-.22.03-.36h.7v-.35h-1.47v.68c-.13.03-.23.05-.36.07,0,.11.02.21.02.32h-.38v-.69c-.13-.02-.24-.03-.37-.04v-.71h.71v-.72h-.7c-.01.09-.03.19-.05.31-.1.02-.22.03-.35.06v.7h-.7c0,.15-.02.28-.02.4h0Z"/>
  </g>
</svg>