<?xml version="1.0" encoding="UTF-8"?>
<svg id="Layer_2" data-name="Layer 2" xmlns="http://www.w3.org/2000/svg" viewBox="0 0 62.66 66.38">
  <defs>
    <style>
      .cls-1 {
        fill: #fff;
      }
    </style>
  </defs>
  <g id="Layer_1-2" data-name="Layer 1">
    <path class="cls-1" d="M56.4,50.88v1.81c-.12.02-.23.04-.37.06v1.05c-.13.01-.23.02-.37.04v.68c-.12.02-.21.03-.33.05-.02.1-.03.2-.06.32-.1.01-.2.03-.32.04-.01.11-.03.22-.05.34h-1.44v-1.43c-.13-.02-.24-.03-.38-.05v-2.54h-.36c-.02.1-.03.2-.05.31-.09.02-.19.03-.31.06-.02.1-.03.21-.05.33h-.71v-.7h-.72c-.02.11-.04.21-.06.33h-.7v-1.07h-.38v1.08h-1.08c-.01.14-.03.24-.04.37h-1.8c-.02.13-.03.24-.05.38h-.68c-.01.13-.02.23-.04.35-.11.01-.21.03-.33.05-.01.09-.03.19-.05.33h-.72c0,.47-.02.9.01,1.34,0,.08.19.15.35.27v.6c.13.01.23.02.36.03v1.45h-1.81c-.01.14-.02.24-.03.36-.11.01-.21.03-.35.04v.68h-.73v.76c-.14,0-.25.02-.37.02-.01.11-.02.21-.03.33h-2.15c-.02-.1-.03-.2-.05-.32-.11,0-.21-.02-.33-.03v-.7c.11-.02.21-.04.33-.06v-.68c-.11-.01-.21-.02-.34-.04v-.72h-.75v.7c-.13.02-.23.04-.37.06v.66c-.13.02-.23.04-.35.06-.01.11-.02.21-.04.35h-2.57v2.54c-.12.03-.22.05-.34.07-.01.1-.03.2-.05.32-.1,0-.2.01-.32.02-.01-.12-.03-.22-.04-.35h-.7c-.02.1-.04.21-.06.34-.1,0-.19.02-.3.03v.35c.1,0,.19.02.31.03v3.29h-.67v.73c.1.01.21.03.32.04v.7h-.7c-.01-.11-.02-.22-.03-.34h-1.07c-.01.11-.02.21-.03.34-.12,0-.24.02-.37.02h.01v-.38h-.71c-.01-.14-.03-.24-.04-.37-.11,0-.21,0-.33-.01-.01.12-.02.23-.04.35h-1.07c-.01-.22-.02-.45-.03-.69-.12-.02-.22-.04-.33-.06-.01-.09-.02-.18-.04-.31h-1.05c-.03-.14-.05-.25-.07-.37-.11-.01-.21-.02-.33-.03v-.71c-.25-.01-.48-.02-.74-.04v-.68c-.13-.02-.24-.03-.35-.04-.02-.12-.04-.23-.06-.36h-.69c-.01-.13-.02-.23-.03-.36h-.68c-.03-.13-.05-.23-.08-.36h-1.05c-.02-.13-.03-.24-.04-.37h-.7v-.72c-.14-.02-.24-.04-.36-.05-.01-.1-.03-.2-.05-.33h-.7c-.01-.26-.03-.48-.04-.74h-.69c-.01.11-.02.22-.04.35-.11.01-.21.02-.34.03-.01.1-.03.2-.04.33h-.67c-.02-.09-.03-.19-.06-.32-.09,0-.19-.02-.32-.03-.02.11-.03.21-.05.35-.09,0-.19.02-.32.03-.02-.12-.04-.23-.06-.35-.11-.01-.21-.02-.33-.03-.01-.11-.02-.22-.04-.34-.1-.02-.2-.03-.32-.05-.01-.1-.03-.2-.04-.34h-.68c-.02-.13-.04-.23-.06-.35-.09-.01-.19-.03-.32-.05-.02-.1-.03-.2-.05-.32-.1-.01-.2-.03-.32-.04-.02-.11-.03-.22-.06-.37h-1.06c-.02-.13-.03-.24-.04-.37h-.68c-.02-.13-.03-.23-.06-.36h-1.06c-.02-.13-.03-.22-.05-.33-.1-.01-.2-.03-.32-.05-.01-.1-.03-.2-.04-.33-.1-.02-.21-.03-.34-.05,0-.11-.02-.21-.03-.35h-.7c-.02-.14-.04-.24-.06-.34-.1-.01-.2-.03-.31-.04-.02-.1-.03-.2-.05-.32-.11-.01-.21-.02-.33-.04,0-.11-.02-.22-.03-.34-.11-.01-.21-.02-.34-.04-.02-.11-.03-.22-.05-.34-.1-.01-.21-.02-.34-.04v-1.79c-.13-.02-.22-.04-.35-.06v-1.79h-.72c-.02-.13-.03-.23-.05-.35-.1-.02-.21-.03-.34-.05-.01-.11-.02-.21-.04-.33-.1-.02-.21-.03-.32-.05-.01-.11-.03-.21-.04-.33-.11-.02-.21-.03-.34-.05v-.68c-.13-.01-.23-.02-.35-.03-.01-.11-.03-.22-.05-.37h-1.06v-.72h.69v-.75h-.7v-.7c-.14-.03-.25-.05-.37-.07,0-.1-.02-.19-.03-.3-.1-.01-.2-.03-.33-.04-.02-.1-.03-.21-.06-.35-.1,0-.2,0-.32-.01-.02.13-.04.24-.06.36h-1.04c-.02-.11-.03-.22-.05-.34-.11-.01-.21-.03-.34-.04v-2.51c-.12-.02-.22-.04-.34-.07-.01-.1-.03-.2-.05-.32-.1-.01-.2-.03-.34-.04v-1.06c-.14-.01-.24-.03-.36-.04-.01-.11-.02-.21-.04-.33-.11-.01-.21-.02-.32-.04-.02-.11-.04-.23-.06-.36h-.68c-.01-.13-.02-.23-.04-.37h-.72v-1.8c-.13-.02-.23-.04-.34-.06-.01-.1-.03-.19-.05-.31-.1-.01-.2-.03-.34-.04v-.72c-.14-.02-.24-.03-.38-.04v-.68c-.13-.01-.23-.02-.37-.03v-.73h-.71v-1.81c.1-.01.19-.03.31-.04.02-.1.04-.2.06-.33h1.41c.02.09.03.19.05.31.1.02.2.04.32.06.01.1.03.2.05.33h.71c.02.14.03.24.04.36.1,0,.19.01.31.02.02.12.04.23.06.35h1.43c.02-.11.04-.22.06-.34.09-.01.19-.02.32-.04v-.68c.14-.02.25-.04.36-.05.01-.11.02-.2.04-.33h1.05c.03-.14.05-.25.07-.37.1-.01.2-.02.32-.04.01-.11.02-.22.03-.33.11-.01.22-.02.33-.04.01-.1.03-.21.04-.32.11-.01.21-.03.33-.04v-.71c-.11,0-.21-.02-.34-.03,0-.11,0-.21-.02-.33.12-.02.22-.03.36-.06v-1.05c.13-.02.24-.03.35-.05.02-.1.03-.2.05-.32.1-.02.2-.03.32-.06.01-.1.03-.2.04-.31.11-.02.21-.03.33-.05v-2.16c-.11-.01-.22-.03-.35-.05v-1.81c-.13-.02-.23-.03-.36-.04v-.68c-.12-.02-.22-.04-.35-.07v-.32h.7v-.73c.14-.01.24-.02.36-.04.01-.11.03-.21.04-.32.11-.01.21-.03.34-.04,0-.11.01-.21.02-.33-.12-.01-.23-.03-.35-.04-.02-.11-.03-.22-.05-.34-.11,0-.21-.02-.33-.03-.01-.11-.03-.21-.04-.34h-1.06c-.01.11-.02.22-.03.34h-1.43c-.01-.11-.03-.22-.05-.35h-.7c0-.12-.01-.22-.02-.33.13-.02.23-.04.35-.06v-.69c-.09-.01-.2-.03-.32-.05-.02-.1-.04-.22-.06-.34-.1-.01-.19-.02-.31-.04v-2.9h.69v-4.04c.14-.02.24-.03.36-.05.02-.1.03-.21.05-.35h.67c.02-.13.04-.23.07-.36.21,0,.43-.02.68-.03.02-.1.03-.2.06-.33h1.43c.02-.14.03-.24.04-.36.1-.01.21-.02.35-.04v-.69c.13-.02.24-.04.35-.06.02-.1.04-.2.06-.33h.68c.01-.13.03-.23.04-.35.11-.01.21-.02.33-.04.02-.11.03-.22.06-.36h1.06c.01-.13.02-.23.03-.35.11-.01.22-.02.34-.04.01-.1.03-.21.05-.32.1-.01.2-.03.32-.05.02-.11.03-.21.05-.34h.68c.02-.13.03-.23.04-.36h1.06c.02-.13.03-.23.05-.36.09-.01.2-.03.32-.05v-1.06c-.09-.01-.19-.03-.33-.05-.01-.22-.02-.45-.03-.7-.11-.02-.21-.04-.33-.06v-1.4c.11-.02.21-.04.32-.06v-1.05c-.1-.02-.2-.03-.32-.06v-.67c.1-.02.2-.03.31-.05.02-.11.04-.21.06-.33.11-.01.21-.02.32-.04.01-.11.02-.22.03-.34.11-.01.21-.02.33-.03.02-.11.03-.22.05-.34h1.04c.02.11.03.21.05.34h.35c.01-.11.02-.21.03-.33h1.05c.01.12.03.22.04.34h1.81c.01-.1.03-.21.04-.33.11-.02.22-.04.34-.06.02-.11.03-.21.05-.33h.66c.03-.12.05-.23.07-.36h.69c.01.1.03.21.04.33h.7v-1.07c.15-.02.25-.03.36-.04.01-.11.03-.21.04-.34h1.04c.02-.12.04-.22.07-.35.09-.01.19-.03.31-.05.01-.1.03-.2.04-.34h.7c.02-.13.04-.23.06-.36h1.05c.01.1.02.2.04.33h1.05c.02.13.03.23.04.36.11.02.22.03.35.05,0,.1.02.2.03.32.11.02.21.03.35.06v1.06c.13.02.24.03.35.05-.04.3.09.38.37.35.24-.03.49,0,.74,0,.02-.13.03-.23.04-.35.11-.01.21-.02.32-.03.02-.11.03-.21.05-.33.1-.01.2-.03.32-.05.01-.11.02-.21.03-.33.11,0,.21,0,.33-.01.01.12.03.22.04.35.11.01.22.03.35.05,0,.11.02.21.03.34.11,0,.21,0,.33.01.02-.12.03-.22.05-.35.09-.02.2-.03.32-.05.01-.1.02-.2.04-.33h.7c.01.11.02.21.04.33.1.01.21.02.34.04v.68c.13.03.23.05.34.07.01.09.03.2.05.34.26-.02.51-.04.76-.06h0c0-.09-.02-.18-.03-.31.78,0,1.54,0,2.29,0,.34,0,.68-.01,1.02,0,.26.01.45-.02.4-.36h.32c.01.1.03.2.04.34.23.01.46.02.7.03.02.11.04.21.06.34h1.42c.02.13.03.23.04.35.1.01.2.03.33.05v1.79c.13.02.23.03.35.05.01.09.03.2.05.33h.69c.02.13.04.23.06.36h.67c.02-.09.04-.19.07-.33h1.06c.01-.26.02-.49.03-.73.12-.02.22-.03.33-.04.01-.1.03-.2.04-.31.1-.02.2-.04.34-.06v-.68c.14-.02.24-.03.38-.04v-.75h1.08,0v1.11c.16.02.26.04.4.06v.69c.14.01.24.02.37.03v.69c.12.03.22.05.34.07.02.1.03.2.05.31.11.02.21.03.32.05.01.1.02.2.03.31.11.02.22.03.35.05.01.11.02.21.03.33.1.01.2.02.33.04.02.1.04.21.06.34.1.01.19.02.3.04.02.1.03.2.05.31.11.02.21.04.32.06.01.1.02.19.04.33h1.43c.02.14.03.24.05.36.11.01.22.03.34.04.01.11.02.21.03.34h.68c.03.13.05.23.07.37h.69v.34c-.1.01-.21.03-.33.04-.02.1-.03.22-.05.36h-.67c-.01.13-.02.23-.04.36h-.7c-.02.13-.04.23-.06.35-.1.01-.2.03-.32.04-.02.12-.03.22-.04.33-.1.01-.2.02-.31.03-.01.11-.03.22-.04.35-.11,0-.21.02-.34.03-.01.1-.03.2-.04.33h-.68c-.02-.11-.03-.21-.05-.33h-.33c-.01.11-.02.21-.03.35h-.71c-.02.13-.03.23-.05.34-.1.01-.2.02-.32.03-.02.1-.03.2-.05.32-.09.02-.19.03-.31.06-.01.1-.02.2-.04.33h-.7c-.02-.1-.03-.22-.05-.34h-1.05c-.01.11-.03.22-.05.35-.1,0-.21.02-.34.03v1.05c-.14.02-.25.03-.39.05,0,.32-.02.63.01.93.01.09.18.16.35.3v.57c.13.02.24.03.38.05,0,.1.01.21.02.33-.13.02-.24.03-.36.05-.01.1-.03.21-.04.31-.12.02-.22.03-.35.05v.69h-.72v-.69c-.14-.02-.24-.03-.37-.05v-.69c-.13-.02-.23-.03-.35-.05-.02-.1-.03-.2-.06-.33-.09-.02-.19-.04-.33-.06v-1.05c-.14-.01-.24-.03-.37-.04v-.7c-.13-.02-.24-.03-.35-.05-.02-.1-.03-.2-.05-.31-.11-.01-.21-.03-.33-.04v-.71h1.81v-1.09c.13-.01.24-.02.38-.04v-.7h.35c.02.11.03.2.05.31.09.02.2.04.31.06.01.1.03.21.04.33.11,0,.21.01.33.02.02-.12.04-.23.06-.37h.68c.02-.12.04-.22.06-.36h1.78c.02-.13.04-.24.06-.35.1-.01.2-.03.31-.05.01-.11.03-.21.04-.33.11-.01.21-.02.35-.04-.01-.13-.02-.26-.03-.4h0c-.22.02-.44.03-.68.04,0-.12-.01-.21-.02-.32.11-.02.21-.05.33-.07.02-.09.03-.2.05-.31.11-.01.21-.03.33-.04,0-.11.01-.21.02-.33-.12-.02-.22-.03-.37-.05v-1.08h-1.08c-.02.1-.03.2-.05.33-.1.01-.21.02-.34.04-.01.12-.02.22-.03.34h-.69v-1.43h-1.84c0,.1-.02.21-.03.34h-1.07c-.02.13-.03.22-.05.34-.09.02-.19.04-.32.06v1.07c.1,0,.2.02.32.03,0,.1.01.2.02.32-.12.02-.22.04-.34.06-.01.09-.02.18-.04.3h-1.07v-.67c-.14-.01-.24-.03-.36-.04-.01-.11-.03-.22-.05-.35-.1-.01-.2-.02-.33-.04-.02-.11-.03-.22-.05-.34-.11-.02-.21-.03-.33-.05v-.66c-.12-.02-.22-.04-.37-.06v-2.55h-2.58c-.02.11-.03.21-.05.33-.1.01-.2.02-.32.04-.01.11-.03.21-.05.33-.09.02-.19.03-.33.06v1.04c-.14.02-.24.03-.36.05,0,.11-.02.21-.03.33-.12.01-.23.02-.36.04v.71h-1.07c-.02.14-.03.24-.05.35-.11,0-.21.02-.33.03-.01.11-.03.21-.04.34h-1.05c-.02.14-.03.25-.05.39h-.71c-.02.13-.03.23-.04.34-.1.02-.21.03-.32.05-.02.1-.03.19-.05.3-.1.02-.2.03-.33.06v.72h-1.83v2.56c.1.01.2.03.33.04v.71h-.69c-.02.13-.04.23-.06.35h-2.89c-.02-.11-.04-.21-.05-.32h-.33c-.01.1-.03.2-.04.31-.09,0-.18.02-.29.03-.02-.12-.04-.22-.07-.35h-1.06v-.75h1.07c.02-.12.03-.22.05-.33.35.03.36-.2.34-.46-.01-.21,0-.42,0-.65.13-.02.23-.03.34-.05.02-.11.03-.21.05-.32.11-.02.22-.03.34-.05v-.7h-.71c-.02.09-.03.19-.05.31-.09.02-.19.04-.31.06-.02.09-.03.2-.05.31h-.31c-.02-.1-.03-.2-.05-.34h-1.05c-.02-.14-.04-.24-.05-.35h-.71v.71c.23.01.46.02.7.03v1.06c-.1.02-.2.03-.32.05-.01.1-.03.2-.05.33h-.71c-.02.14-.03.24-.04.35-.11.01-.21.03-.32.04-.01.12-.03.22-.04.34h-.32c0-.12-.02-.22-.02-.34-.11-.01-.21-.03-.34-.04-.02-.1-.03-.2-.05-.34h-1.42c-.02-.14-.03-.24-.05-.35-.11,0-.2-.02-.32-.03-.02-.11-.04-.22-.06-.34h-.33c-.02.11-.03.21-.05.34h-.67c-.02.13-.03.23-.05.36h-.69c-.03.13-.05.24-.07.36h-.3c-.01-.11-.02-.21-.04-.35h-.7c-.02-.13-.03-.22-.05-.34h-1.44c-.01.1-.02.19-.04.33h-1.43c-.02.14-.03.24-.04.36-.11.01-.21.02-.34.04v1.44c.1.02.21.03.33.06v.7c-.1.01-.21.02-.32.04-.02.1-.03.2-.06.32h-.66c-.02-.09-.03-.19-.05-.31h-1.07c-.02.1-.03.19-.05.32h-.67c-.02.13-.03.23-.05.37h-1.83v.74c-.13.01-.23.02-.35.03-.02.11-.03.21-.05.34h-.68v1.1c.11.01.21.02.33.04.02.1.03.2.06.34h2.52c.02.13.04.23.05.35.11.02.22.04.34.06h.38c.25-.01.47-.01.72-.01v1.06c.14.02.25.04.37.06v.3c-.11.01-.21.03-.34.04v.35c.11.01.21.02.35.03v.71c.12.01.22.03.33.04.02.1.03.2.05.32.1.02.2.04.31.06.01.1.03.2.05.33h1.42c.02.13.03.23.05.36.1.01.2.02.34.04v1.05c.14.02.25.04.38.06v1.05c-.11.01-.22.03-.34.04,0,.11-.01.21-.02.33.13.02.24.04.37.06.01.11.02.21.03.33.11.01.21.02.33.03.01.11.03.22.04.33.1.01.21.03.33.05-.05.28.08.4.36.36.01.11.02.21.03.32.11.02.22.04.36.06v2.89c.12.02.22.04.36.06,0,.09.01.19.02.31-.13.01-.23.02-.36.04v1.44c-.13,0-.24.02-.36.03v.72c.1.02.21.03.34.05,0,.09,0,.18.01.3-.12.02-.23.03-.38.05v.71h-.71c-.01-.11-.02-.22-.03-.34-.11,0-.21-.02-.33-.03-.02.13-.03.24-.05.37-.1,0-.21.01-.33.02-.02.11-.03.22-.05.34-.1.01-.21.02-.35.04v2.92h-.69c-.02.12-.04.22-.07.37h-.73v.72c-.12.01-.23.02-.34.04-.02.12-.03.22-.05.34h-.32c0-.11-.02-.22-.03-.34h-1.45c-.01.11-.02.21-.04.34h-1.06c-.01-.1-.03-.21-.05-.34h-.69c-.02-.13-.04-.24-.05-.37-.1-.01-.21-.02-.33-.04-.02-.11-.03-.21-.05-.33h-1.06c-.01.11-.02.21-.03.33h-.7c-.02.14-.04.25-.07.39h-1.05c-.01.13-.02.23-.03.38h-.7v.71c.11.02.21.04.34.06v1.04c.13.02.24.04.36.07,0,.09.02.19.03.31.23.01.46.03.7.04.02.11.03.22.05.35h.68c.01.13.03.23.04.35.11.01.22.03.35.04v.68c-.11.01-.21.02-.34.04,0,.1-.02.21-.03.34h1.84c.01-.09.02-.19.04-.31.11-.01.21-.03.33-.05.01-.1.03-.2.05-.32.1-.01.2-.02.32-.04.02-.11.03-.21.05-.34h.31c.01.11.02.22.03.33.12.01.22.03.34.04.01.1.03.2.04.32.1.02.21.03.35.06v.69h.38v-.7c.25-.01.47-.02.71-.03.02-.1.03-.2.05-.32.1-.02.22-.03.35-.06v-.68c.13-.02.24-.05.37-.07v-.66c.12-.02.22-.04.34-.07.02-.09.04-.2.06-.32.09-.01.2-.02.32-.04v-.35c-.1-.01-.21-.02-.33-.03v-.7h1.07c.02-.14.03-.24.05-.36h.68v.68c-.1.01-.2.03-.33.04v1.08c.11.02.21.03.33.05.01.1.03.2.05.33.23.01.45.02.69.03.02.11.04.21.06.32.1.02.2.03.31.05.01.11.03.21.04.33.11.01.21.02.34.04v.68c.13.02.24.04.37.06.01.1.03.2.04.32.1.01.21.02.32.03.01.11.03.21.04.33.1.01.2.03.32.05.01.11.03.21.04.33.11.01.21.03.33.04,0,.09.01.18.02.3-.12.02-.23.04-.36.06v1.07c.11.01.21.03.35.04v1.07h1.09v1.07c-.09.02-.19.04-.31.06v.7c.1.01.2.03.31.05v.31h-.69v-1.42c-.14-.02-.24-.04-.35-.06-.02-.1-.04-.2-.06-.33h-1.04c-.02-.13-.03-.24-.05-.37-.1,0-.21-.02-.33-.03-.01-.11-.03-.21-.05-.34h-.34c-.01.11-.03.21-.04.34h-.69v.72c-.14.02-.24.03-.37.05-.01.1-.03.2-.04.34h-.69v1.11h.32c.02-.11.04-.22.06-.33.11-.01.21-.02.33-.04,0-.11.02-.22.03-.34.11,0,.21-.01.33-.02.02.13.03.24.05.36.11.01.21.03.33.04v1.44h-.71v.36c.11.01.21.03.35.05,0,.09,0,.19.01.31h-.7c-.02-.1-.04-.2-.07-.33h-.67c-.02-.13-.03-.23-.05-.35h-.35c-.01.11-.02.21-.04.32-.11.02-.22.03-.33.04-.01.1-.03.19-.04.31-.09.02-.19.03-.31.05-.02.11-.04.22-.07.35h-.68v1.08c.11.02.22.04.34.06.01.1.02.19.03.31.1.02.2.03.33.06v1.41c.13.02.23.04.35.06.01.1.03.2.04.33h.72v.75h.71c0,.12.02.22.03.33-.11.02-.21.04-.34.06v1.06c.09.02.19.04.33.07v1.06h1.09c.02.13.04.23.06.36h1.06c.02-.1.03-.21.05-.34h1.06v-.73c.26-.01.49-.02.75-.03,0-.11.01-.21.02-.36h-1.47v-.71c-.13-.01-.24-.02-.36-.04v-.69c.11-.02.21-.03.33-.05.01-.11.03-.21.04-.34h1.78c.03-.13.05-.24.07-.37h.68c.01.11.02.21.03.33.11.02.22.03.34.05.01.11.03.21.04.32.1.02.2.03.32.05v1.42h1.83c.02-.09.04-.2.07-.33h.69c.01.11.03.21.04.32.1.02.2.04.34.06v1.41c.13.03.23.05.36.07v.67c.13.02.23.03.37.04v.71h1.09c.02-.11.04-.21.06-.33.1-.01.2-.02.33-.04v-2.53c.13-.02.24-.03.36-.05.01-.1.02-.21.04-.33.1-.01.21-.02.33-.04.02-.11.04-.22.06-.36h.68c.01-.13.02-.23.03-.35.11-.01.21-.03.33-.04.02-.1.03-.2.05-.33h1.43c.01.11.02.21.04.32.12.01.22.02.34.04v.69c-.11.02-.22.04-.34.06v.68h.72c.01-.23.02-.45.03-.68.12-.02.22-.03.32-.05.01-.11.03-.22.04-.34h.7v.34c-.11,0-.21.02-.33.03v.33c.1.02.21.03.33.05.02.09.03.19.05.31.1.02.2.03.31.05.02.11.03.22.05.33.1.01.2.02.31.03.02.11.04.22.06.36h.71v.72h-.72v.74c.11.01.21.02.34.03v1.44c-.1.01-.21.02-.34.04v.69h-.71v.75h.69c.01-.1.02-.21.04-.34h1.09v-1.48h.72c.01-.13.02-.23.04-.37h.7c.02-.13.03-.22.04-.33.1-.02.2-.03.34-.06v-.7c.13-.01.23-.02.36-.04v-1.06c.13-.02.23-.03.36-.04.02-.11.03-.22.05-.35h.69v-.37c-.11-.01-.21-.02-.32-.04v-1.78c.11-.02.21-.03.34-.06v-1.05c.14-.02.24-.04.35-.06,0-.1.02-.19.03-.3.11-.02.21-.04.34-.06v-1.05c.14-.02.25-.04.39-.07v-.67c.13-.02.23-.03.37-.05v-1.07c.13,0,.22-.01.33-.02.02.12.03.22.04.34.1.01.21.02.33.04.02.1.03.22.05.34h.71c.01-.12.03-.22.04-.33.11-.02.21-.03.32-.05.01-.1.02-.19.03-.32.1,0,.2-.02.32-.03.02.12.03.22.05.34.1.02.21.03.35.06v1.8h.72c.01-.11.02-.22.04-.34h1.05c.02.11.04.22.06.34.09.01.19.02.3.03.02.1.03.21.06.35h.71c.01.13.02.23.03.35h1.43c.01-.1.03-.2.04-.32.1-.02.21-.04.34-.06.01-.11.02-.21.04-.34h.7v-1.46c.14-.01.24-.02.37-.04v-.68c.13-.03.24-.05.36-.07.02-.1.03-.2.05-.32h1.04c.02.1.03.21.05.33.11,0,.21,0,.33.01v-.72c-.11,0-.22-.02-.33-.03-.01-.11-.02-.22-.03-.34-.1-.01-.2-.03-.33-.04-.02-.1-.04-.21-.06-.33-.1-.01-.19-.03-.31-.04v-1.41c.09-.02.19-.04.31-.06.01-.1.03-.2.05-.33.23,0,.45-.01.67,0,.26.02.48,0,.43-.38h1.08c.01-.13.02-.23.03-.36h.68c.02-.13.03-.23.05-.36h1.43c-.01.11-.02.21-.03.32-.1.02-.2.03-.3.05v.33h.38c-.03-.15-.06-.27-.08-.38.25.01.51.03.78.05.02-.13.03-.23.05-.37.22-.01.45-.02.69-.03.02-.11.03-.2.05-.31.1-.02.2-.04.32-.06.01-.1.03-.2.05-.33h1.43v-4.42c-.09-.02-.19-.03-.32-.06v-1.43c-.26-.01-.49-.03-.73-.04-.01-.11-.03-.21-.04-.34h-2.16c-.02-.13-.04-.24-.06-.37-.1-.01-.19-.02-.31-.04-.02-.1-.03-.21-.05-.34-.11-.01-.21-.02-.33-.04-.01-.11-.02-.21-.03-.32-.11-.02-.22-.03-.33-.04-.02-.11-.03-.21-.05-.32-.1,0-.2-.02-.31-.03-.02-.11-.04-.22-.07-.36h-.69v-.73h-1.1c-.02.1-.04.21-.07.34h-1.41c-.02.14-.04.25-.06.39h-.68c-.01.13-.02.24-.03.37-.12,0-.22.02-.35.02,0,.11,0,.21-.02.33.13.02.24.04.36.06,0,.1.02.19.03.32h1.06c0,.14.01.24.02.37h-.72v1.46c-.14.02-.24.03-.36.04,0,.11-.02.21-.03.34-.11.01-.22.03-.36.05v.68h-.7c-.02-.11-.03-.21-.05-.33h-.69c-.02-.13-.03-.23-.05-.35-.1-.01-.21-.02-.34-.04v-.72h-1.1c-.01.11-.02.21-.04.33-.11.01-.22.03-.34.05-.01.11-.02.22-.04.35h-.69v.7h-.74v-.66c-.12-.02-.22-.04-.37-.06v-1.09h-.72c-.02-.13-.03-.23-.05-.35-.11-.01-.21-.02-.33-.03-.02-.11-.03-.21-.05-.34-.1-.02-.2-.03-.33-.05v-.69h-1.84c-.01.1-.03.19-.04.31-.1.01-.2.03-.34.05v.72c-.14,0-.24.02-.37.03-.01.11-.03.21-.04.33h-1.05c-.01-.1-.02-.2-.03-.31-.11-.02-.22-.03-.34-.05v-.69c.11-.02.22-.04.35-.06v-.68c-.11-.01-.21-.02-.34-.04v-1.81c.11-.01.21-.02.34-.03,0-.11.02-.21.03-.33.11-.02.21-.03.34-.05,0-.1.01-.2.02-.32-.13-.02-.24-.04-.37-.07v-.32h0c.24,0,.48,0,.71,0,.02-.16.04-.26.06-.4h.68v-.75h-.68c-.03-.13-.05-.23-.07-.35-.12,0-.22.01-.31.02-.02.12-.03.21-.05.31-.11.02-.21.03-.32.04-.02.12-.04.23-.05.34-.13.01-.23.02-.34.03,0,.13-.01.25-.02.36h0c-.22-.01-.45-.01-.69-.01-.02-.12-.03-.23-.05-.37h-.71v-1.45c.11-.01.22-.02.33-.04.01-.1.03-.2.04-.33h.67c.02.11.03.21.05.33h.73v-3.28h.72v2.17c.13.02.23.03.35.04.02.1.04.21.06.34.11.01.21.02.33.04v.31c-.11.01-.21.02-.34.03-.01.11-.03.21-.04.33-.1.01-.2.03-.33.04v.35h.72v-.71h2.21c.01-.26.02-.49.04-.75h.69c.01-.13.03-.23.04-.36h1.05c.01.11.03.21.04.33.1,0,.21.02.33.03.02.11.03.22.05.34.11.01.21.02.33.04.01.1.03.2.04.32.1.02.2.04.31.06.02.1.03.19.05.3.09.02.19.04.32.06v1.43h-1.06c-.01.14-.02.25-.03.38-.12,0-.22.02-.34.03-.01.11-.03.21-.04.33-.1.02-.2.03-.32.05v1.44c.11,0,.2.02.32.03-.04.38.2.38.48.36.2-.02.4,0,.62,0,.03.12.05.22.08.34h1.06c.01-.1.03-.2.05-.32.1-.01.2-.03.34-.04v-1.08h1.09c.02-.13.03-.24.05-.36h1.04c.03-.13.05-.24.07-.36h.32c.01.11.02.21.04.34.23.01.45.02.67.03.02.12.04.22.06.33.1,0,.2,0,.31.01.02-.11.04-.21.07-.34.22-.01.45-.02.69-.03.01-.12.03-.22.04-.34h1.42c.02-.13.04-.24.06-.37h.67c.01.11.02.21.04.34h1.07c.02-.1.04-.21.06-.35h.67c.01-.13.03-.23.04-.35h.34c0,.11.02.21.03.34h2.15c.02.13.03.23.05.35.1.01.2.03.33.05.01.1.03.2.05.32.11.02.22.04.34.06,0,.1.02.19.03.31.1.01.2.03.34.05v.69c.14.02.24.04.36.06-.04.27.08.4.36.36.01.11.02.21.04.34h.71c.02.14.03.24.05.36.1.02.2.03.34.05v.71h.72c.02.12.03.23.05.34.11.01.21.03.33.04v3.27c-.1,0-.2.02-.34.03v1.44c-.13.01-.24.02-.36.04-.02.11-.03.22-.05.35-.1.01-.2.02-.32.03-.02.11-.03.21-.05.32-.1.02-.2.04-.32.06v.69c.1.01.19.02.31.04.02.11.04.22.07.34.1.01.19.02.31.03v3.29c-.1.01-.21.02-.33.04v.68c.11.02.21.04.34.06v1.41c.13.02.23.04.36.06.01.09.02.19.04.33h.68c.02.14.04.24.06.37h.68c.02.13.04.24.05.37h.69c.02-.11.04-.22.06-.34h1.77c.01.1.02.2.04.33.1.02.21.03.33.05.01.09.03.19.05.31.11.02.22.04.34.06v1.04c-.11.02-.22.04-.35.06v.68c.11.02.22.03.35.05v.33c-.11,0-.21.02-.34.03v1.44c.1.01.21.03.34.04v.68c-.11.02-.22.03-.36.06v1.43h-.32c-.02-.1-.04-.2-.07-.31-.1-.01-.2-.03-.31-.04-.01-.11-.02-.21-.04-.33-.11-.01-.21-.02-.34-.04,0-.1-.01-.2-.02-.32.12-.02.22-.04.35-.06v-.66c.13-.02.23-.04.36-.07v-.7c-.1-.02-.2-.03-.33-.06v-.67c-.13-.02-.23-.03-.37-.05v-.71c-.13-.02-.23-.03-.36-.04-.01-.1-.03-.2-.05-.32-.09-.02-.19-.04-.31-.06-.02-.09-.04-.19-.06-.31-.1-.01-.19-.02-.3-.04-.02-.1-.03-.2-.05-.34-1.23,0-2.46,0-3.69,0h0Z"/>
  </g>
</svg>