<?xml version="1.0" encoding="UTF-8"?>
<svg id="Layer_2" data-name="Layer 2" xmlns="http://www.w3.org/2000/svg" viewBox="0 0 46.76 61.59">
  <defs>
    <style>
      .cls-1 {
        fill: #fff;
      }
    </style>
  </defs>
  <g id="Layer_1-2" data-name="Layer 1">
    <path class="cls-1" d="M8.05,61.59v-11.4c-3.76-2.83-7.03-7.66-7.56-12.44C-.19,31.55-.12,18.06.44,11.77.96,5.83,7.08,3.8,11.65,7.19c.98-5.83,7.62-7.06,11.6-3.2,2.62-6.75,12.29-4.33,12.41,2.8,3.97-2.5,9.86-1.09,10.7,3.9.95,5.64,0,15.58-.3,21.51-.11,2.33.2,4.79-.11,7.09-.61,4.51-3.73,7.89-7.5,10.1v12.2H8.05ZM33.65,20.39V6.19c0-.16-.82-1.89-1.02-2.18-2.31-3.38-7.53-2.25-8.16,1.81-.19,1.23-.22,7.24.35,8,.4.55,5.86,4.79,6.87,5.53.34.25,1.69,1.35,1.96,1.04ZM13.65,6.59c-.47,2.18.35,5.83,0,8.2,2.5-2.55,5.21-3.74,8.8-2.8.25-3.29.31-7.76-3.9-8.33-1.64-.22-4.55,1.3-4.9,2.93ZM5.54,7.67c-1.47.34-2.84,2.31-3.06,3.74-.35,2.26-.32,10.04.01,12.34.73,5.13,8.18,5.58,9.06-.47.37-2.53.43-11.14-.54-13.25s-3.28-2.86-5.47-2.36ZM38.74,7.67c-5.04,1.16-2.47,10.76-3.09,14.52.13.65,5.64,5.01,6.2,5.01.97,0,2.43-2.08,2.58-3.04.36-2.27.32-10.42-.01-12.74-.41-2.86-2.87-4.4-5.68-3.75ZM36.51,59.66l-.06-11.47c8.52-4.24,10.54-13.33,3.2-20-5.24-4.77-11.82-8.86-17.06-13.74-5.19-2.82-10.54,2.99-6.76,7.96,1.17,1.53,7.99,6.2,8.15,7.05-2.53,4.38-3.75,7.81-1.49,12.69.55,1.18,4.39,4.96,2.54,5.45s-4.76-5.23-5.2-6.79c-1.04-3.73-.43-6.51,1.01-10.01-3.7,1.2-6.94,0-9-3.19-2.41,2.79-6.68,2.68-9.4.39v9.8c0,4.18,4.72,8.96,7.6,11.6l.06,10.27h26.4ZM13.66,23.19c-.86,3.86,2.69,7.61,6.39,5.4l-6.39-5.4Z"/>
  </g>
</svg>