<?xml version="1.0" encoding="UTF-8"?>
<svg id="Layer_2" data-name="Layer 2" xmlns="http://www.w3.org/2000/svg" viewBox="0 0 62.28 61.19">
  <defs>
    <style>
      .cls-1 {
        fill: #fff;
      }
    </style>
  </defs>
  <g id="Layer_1-2" data-name="Layer 1">
    <path class="cls-1" d="M8.07,61.19v-11c-3.64-2.55-7.04-7.56-7.56-12.04-.68-5.92-.68-20.81-.04-26.76S7.35,3.93,11.67,7.19c.39-4.21,5.41-6.7,9.09-4.88.74.37,1.75,1.82,2.3,1.69,3.61-6.72,12.97-4.47,12.61,3.2,3.34-2.77,8.73-2.01,10.48,2.11.13.3.71,2.34.71,2.49v8.6c2.01-1.91,3.27-4.89,6.29-5.51,7.13-1.47,11.43,5.15,7.81,11.41-2.61,4.5-12.07,16.79-15.71,20.69-1.38,1.48-3.21,2.82-5.12,3.47l.11,10.74H8.07ZM33.66,24.77l-.07-19.29c-.95-4.67-7.99-4.45-8.69-.07-.5,3.11-.46,17.6.07,20.69.05.3.76,1.9.92,1.9,2.55-1.25,4.73-3.22,7.77-3.23ZM17.57,3.68c-2.19.19-3.85,2.14-4.2,4.21-.45,2.68-.45,15.6.18,18.03,1.16,4.47,7.88,4.47,8.83-.22.6-2.93.39-13.79.11-17.12-.22-2.62-2-5.16-4.92-4.9ZM5.56,7.67c-1.09.25-2.75,1.9-3,3-.38,1.71-.36,11.62-.06,13.49.68,4.32,7.79,4.76,8.68.33.4-1.97.4-11.43.07-13.48-.4-2.55-3.25-3.9-5.69-3.34ZM42.81,26.33c.38-1.22,1.81-2.12,2.04-3.36.38-2.07.2-11.15-.62-12.94-1.8-3.92-7.83-3.12-8.53,1.38-.2,1.3-.25,11.89.03,12.72.31.94,1.86.57,2.76.84.85.25,3.83,1.65,4.32,1.36ZM2.47,27.99v10.2c0,1.01,1.95,5.15,2.63,6.17,1.32,2.02,3.27,3.36,4.97,5.03v9.83h28v-9.43c0-1.12,4.62-2.47,5.41-3.79,4.29-7.03,11.6-13.78,15.72-20.68,3.47-5.81-1.9-10.8-7.52-7.52l-8.66,11.42c-1.87-.6-3.19-2.01-5.26-2.34-11.53-1.83-18.08,10.39-10.72,19.12.58.69,1.73.93,2.06,1.96l-.9,1.18c-6.04-3.1-7.66-11.14-5.01-17.03.74-1.65,2.18-1.78.86-3.73-1.55.33-2.1,1.96-3.7,2.49-3.46,1.14-6.71-.27-8.49-3.29-2.61,2.6-6.6,2.78-9.4.39Z"/>
  </g>
</svg>