<?xml version="1.0" encoding="UTF-8"?>
<svg id="Layer_2" data-name="Layer 2" xmlns="http://www.w3.org/2000/svg" viewBox="0 0 61.19 84.18">
  <defs>
    <style>
      .cls-1 {
        fill: #fff;
      }
    </style>
  </defs>
  <g id="Layer_1-2" data-name="Layer 1">
    <path class="cls-1" d="M7.46,84.18v-10.2C-1.6,67.86.32,57.89.27,48.37c-.02-4.64-.58-9.73-.03-14.39s7.42-7.1,10.61-3.4c1.99-3.35,4.16-5.16,8.31-4.3,1.48.3,2.22,1.7,3.48,1.91,1.64-4.49,7.04-4.97,10.41-2V5.18c.86-5.2,8.51-7.24,11.77-2.57,2.5,3.58,1.06,7.91,1.01,11.76-.12,9.93.12,19.89.02,29.82,1.26-.72,1.95-2.52,2.94-3.46,6.09-5.77,15.86,1.1,11.15,9.35-2.53,4.44-15.38,20.28-19.33,23.07-.7.5-1.5.92-2.36,1.04v10H7.46ZM39.35,1.87c-1.96.18-4.13,2.15-4.26,4.15-.32,11.58.3,23.2-.02,34.78-.04,1.41-1.13,5.97-.03,6.79l6.56,2.14,2.27-3.32c.07-9.61-.16-19.23-.04-28.84.05-3.87,2.6-16.36-4.49-15.7ZM33.02,47.75c-.59-5.43.78-11.92-.14-17.18-1.02-5.82-8.21-5.36-9-.56-.42,2.56-.39,17.85.16,20.2.14.59.31,1.18.82,1.57,2.13-2.4,5.04-3.56,8.16-4.03ZM15.75,28.29c-1.03.27-2.48,1.85-2.68,2.92.48,5.93-.71,13.01-.03,18.79.56,4.73,7.28,4.65,8.72.31-.35-5.75.76-12.72.09-18.32-.35-2.96-3.32-4.41-6.11-3.69ZM6.15,30.67c-4.88.46-4.39,6.62-4.31,10.13,1.05,3.19-.92,7.89,2.67,9.73,2.52,1.29,5.89-.23,6.46-3.04.44-2.16.33-9.53.11-11.92-.24-2.52-2.06-5.17-4.92-4.9ZM36.26,72.98c1.57-.4,3.27-1.48,4.53-2.47,3.03-2.36,15.35-17.83,17.4-21.4,3.22-5.62-2.3-10.71-7.1-7.5-2.1,1.4-8.36,10.8-9.06,10.97-4.5-3.33-10.16-3.98-14.76-.38-4.96,3.88-4.82,9.13-3.41,14.79-3.36.58-3.06-6.4-2.76-8.56.24-1.73,1.37-3,1.89-4.51.23-.65.81-.65-.13-1.32-2.54,4.27-10.13,3.83-11.41-1.21-2.97,1.52-5.88,2.63-8.8.19l-.79.4v8.4c0,.24.47,2.56.58,3.02.97,4.04,3.84,7.29,7.02,9.78v9.22h26.8v-9.42Z"/>
  </g>
</svg>