<?xml version="1.0" encoding="UTF-8"?>
<svg id="Layer_2" data-name="Layer 2" xmlns="http://www.w3.org/2000/svg" viewBox="0 0 68.87 86.09">
  <defs>
    <style>
      .cls-1 {
        fill: #fff;
      }
    </style>
  </defs>
  <g id="Layer_1-2" data-name="Layer 1">
    <path class="cls-1" d="M11.25,86.09v-11.4C-.32,66.1,3.63,52.62,2.85,40.3,2.41,33.28.46,25.68.06,18.69c-.2-3.44-.1-7.31,3.78-8.62,4.34-1.46,8.01.71,8.97,5.07,1.43,6.5,1.38,14.38,2.5,21.1.08.47.12,1.86.74,1.85l-1.85-29.73C14.52.23,26.2-.02,27.22,7.53c.96,7.1.59,15.15,1.24,22.36l.8,6.2V4.69c0-.47,1.89-3.06,2.49-3.51,2.14-1.58,6.04-1.61,8.11.1.58.48,2.19,2.81,2.19,3.41v33.4c.61-.19.74-2.03.8-2.6.78-7.55.81-15.25,1.61-22.79.37-3.48.46-7.45,4.12-9.08s8.34.45,9.08,4.66l-2.41,34.61c3.55-4.16,9.88-4.28,12.62.78,1.94,3.59.76,5.72-1.26,8.78-3.2,4.85-10.79,14.69-14.76,18.84-1.56,1.64-3.56,2.56-5.41,3.79v11H11.25ZM40.05,40.09V4.69c0-.32-1.86-2.19-2.42-2.38-1.42-.49-3.09-.4-4.36.4-.45.28-2.02,2-2.02,2.38v33.6c-.88,1.08-2.62-.17-3.98.18l-2.04-30.96c-1.14-5.35-8.1-5.12-9,.15l1.83,32.02h-4.4c-.79-7.22-1.3-14.58-2.45-21.75-.55-3.41-.73-7.09-5.34-6.67-4.06.37-3.97,3.82-3.79,7.01.38,6.98,2.36,14.58,2.79,21.61.71,11.73-3.27,25.6,8.4,33.2v10.62h31.2v-10.82c1.04-.21,2.17-.58,3.08-1.12,3.14-1.85,15.1-17.33,17.65-21.15,1.96-2.94,2.68-6.03-.75-8.31-6.63-4.4-10.77,7.74-15.04,10.94-7.46-5.85-18.57-1.56-18.96,8.22-.07,1.8,1.03,5.11.77,5.96-.92,2.95-2.64-2.77-2.75-3.94-1.06-11.51,10.63-18.42,20.54-13.06l3.68-4.32c.78-7.65,1.62-15.35,2.18-23.02.31-4.19,1.19-10.47.82-14.42-.48-5.15-7.22-5.38-8.74-.7l-2.48,31.72h-4.4Z"/>
  </g>
</svg>