<?xml version="1.0" encoding="UTF-8"?>
<svg id="Layer_2" data-name="Layer 2" xmlns="http://www.w3.org/2000/svg" viewBox="0 0 65.34 85.13">
  <defs>
    <style>
      .cls-1 {
        fill: #fff;
      }
    </style>
  </defs>
  <g id="Layer_1-2" data-name="Layer 1">
    <path class="cls-1" d="M8.02,84.75c.26-.37.33-8.06.2-9.05-.19-1.39-4.37-5.09-5.54-7.26-3.56-6.56-1.79-17.55-2.06-25.14-.16-4.58-2.7-11.47,3.97-13.19,2.55-.66,3.78.17,6.01,1.01l-1.9-20.5c1.11-7.54,10.61-8.32,12.93-1.12.62,8.74,1.79,17.47,2.18,26.23.02.49-.3,1.49.4,1.39l-.36-31.76c1.05-4.83,6.2-6.96,10.34-4.01,3.26,2.33,2.2,5.02,2.43,8.37.54,7.93.51,16.04.81,23.99.1,2.6-.11,5.22-.01,7.81l.79-6.6c-.13-5.36.48-10.69.8-16,.21-3.55-.19-8.51.49-11.91,1.1-5.46,8.93-6.7,11.84-2.02,1.83,2.95.57,8.54.45,11.92-.32,9-.74,18-1.18,27.01.94-.67,1.58-2.2,2.43-2.96,6.38-5.69,15.89,1.71,10.93,9.73-2.67,4.32-13.9,18.51-17.58,21.62-1.14.96-2.67,1.59-3.79,2.61v10.2l-34.57-.37ZM40.59,83.25v-10.12c2.66-.69,4.79-2.45,6.61-4.39,5.37-5.75,9.78-13.37,15.17-19.23,2.79-4.37-.49-9.18-5.56-8.36-3.2.52-10.01,11.94-10.82,11.94-7.62-6.64-19.39-1.2-19.02,9.05.04,1.23,1.43,4.97.82,5.39-1.9,1.3-2.77-4.24-2.81-5.38-.43-10.9,11.37-17.49,20.62-11.91l2.82-3.48c.58-9.94.99-19.87,1.38-29.82.11-2.84.69-5.83.41-8.82-.5-5.4-7.84-5.16-8.73-.69-1.08,5.47-.59,13.7-.9,19.5-.04.77-.37,1.54-.41,2.39-.24,4.6-.14,9.27-.56,13.84l-4.23.38c-.57-10.8.16-21.85-.38-32.62-.08-1.58-.36-5.94-1.03-6.97-2.09-3.23-7.23-2.25-8.09,1.48l.31,36.91h-3.34c-.38-.07-.5-.74-.56-1.09-1.43-8.26-1.19-18.2-2.11-26.71-.28-2.55-.14-5.65-2.42-7.18-3.21-2.16-6.61-.06-7.11,3.57.58,11.19,2.58,22.44,3.13,33.62.14,2.92.46,5.62-1.8,7.79-1.7,1.64-4.02,1.98-6.31,1.51-1.2-.25-1.92-1.38-3.09-1.51v10.6c0,3.15,4.92,9.1,7.6,10.8v9.19l30.4.33ZM5.28,32.02c-1.95.4-3.31,2.23-3.48,4.16-.16,1.77.82,10.76,1.27,12.67.71,3.03,5.15,4.19,7.47,2.04,1.72-1.59,1.34-4.15,1.24-6.35s-.48-6.53-.89-8.71c-.52-2.76-2.89-4.36-5.62-3.8Z"/>
  </g>
</svg>