<?xml version="1.0" encoding="UTF-8"?>
<svg id="Layer_2" data-name="Layer 2" xmlns="http://www.w3.org/2000/svg" viewBox="0 0 64.07 86.12">
  <defs>
    <style>
      .cls-1 {
        fill: #fff;
      }
    </style>
  </defs>
  <g id="Layer_1-2" data-name="Layer 1">
    <path class="cls-1" d="M7.83,86.12v-10.6c-3.67-2.8-6.93-7.42-7.49-12.11C-.67,54.91.98,45.15.01,36.5c1.18-4.83,6.26-6.58,10.4-3.99,1.96-5.27,6.79-7.26,11.42-3.59l-1.09-23.3c1.05-7.42,12.01-7.83,13.05.74l1.65,36.15.79-3c.55-9.7.44-19.53,1.19-29.21.72-9.3,11.56-10.06,13.21-1.19l-2,35.8c.94.28.69-.28.91-.51.72-.73,1.37-2.05,2.09-2.69,5.92-5.29,14.67.54,11.91,7.92-1.06,2.84-13.02,17.65-15.73,20.67-2.16,2.41-4.42,3.97-7.19,5.61v10.2H7.83ZM2.23,53.72v9.8c0,.29.91,2.74,1.13,3.27,1.39,3.36,4,5.42,6.47,7.93v9.68h28.8v-9.68c1.07-1.06,2.44-1.39,3.72-2.28,3.82-2.64,15.75-17.6,18.45-21.95,4.01-6.46-3.29-11.57-7.93-7.13l-8.06,10.36c-8.25-6.66-19.96-.94-19,9.82.14,1.63,2.09,5.43-.53,4.53-.7-.24-1.36-2.92-1.45-3.75-1.29-11.77,10.32-19.25,20.56-13.43.17-.04,2.11-2.46,2.16-2.65.72-2.46.72-10.01.9-13.1.44-7.91,1.1-16.58,1.21-24.41.1-7.29-8.12-7.55-9.13-1.51l-1.69,35.31h-4.4s-1.78-38.82-1.78-38.82c-1.13-5.37-8.66-4.82-9.05,1.01-.24,3.57.68,9.04.84,12.8.32,7.75.44,15.46.79,23.21.2,4.31,2.31,10.14-2.35,12.86-3.62,2.12-7.41.75-9.46-2.65-1.77,2.24-4.33,2.88-7.11,2.3-1.2-.25-1.92-1.38-3.09-1.51ZM13.97,30.26c-.98.94-1.33,2.35-1.36,3.66-.1,3.95.66,12.74,1.32,16.71.91,5.46,8.5,5.1,9.09-.35-.98-5.42-.44-11.62-1.37-16.97-.66-3.82-4.76-5.84-7.69-3.04ZM5.33,33.42c-1.95.4-3.31,2.23-3.48,4.16-.2,2.28.45,9.4.82,11.91.77,5.25,8.5,5.33,8.99-.15.22-2.42-.31-9.19-.66-11.78-.39-2.96-2.68-4.76-5.67-4.14Z"/>
  </g>
</svg>