<?xml version="1.0" encoding="UTF-8"?>
<svg id="Layer_2" data-name="Layer 2" xmlns="http://www.w3.org/2000/svg" viewBox="0 0 48.24 78.11">
  <defs>
    <style>
      .cls-1 {
        fill: #fff;
      }
    </style>
  </defs>
  <g id="Layer_1-2" data-name="Layer 1">
    <path class="cls-1" d="M25.36,10.45c-2.45,2.7-1.77,14.85-2.66,18.81-.21.34-5.74,1.61-6.95,2.57-1.04.82-1.08,2.13-1.79,2.61-1.05.71-3.79.64-5.32,1.52-2.11,1.21-1.91,3.08-2.95,4.37C3.69,42.83.21,41.41.01,47.55c-.13,4.03,1,12.39,2.12,16.32.54,1.92,2.4,4.87,2.57,6.25.3,2.55-2.69,6.76.26,7.98.85-.04,2.73-6.94,2.66-8-.08-1.17-2.71-6.53-3.25-8.96-.67-2.98-2.73-14.81-.88-16.7l1.46-.48c.91.25.58,4.76,2.68,3.41.85-.55.16-7.76,2.26-9.21,5.82-4.02,1.96,5.38,5.31,4.33,1.82-.57-.79-8.85,4.52-9.65s.16,5.79,2.81,8.19l1.45-.49,3.38-28.34,2.2-.4c1.37,3.2.09,6.79.02,9.94-.13,6.03-.54,14.22,0,20.05.29,3.15,2.45,5.6,5.76,4.24,3.89-1.6,3.77-10.25,8.79-10.77,3.26-.34.1,3.13-.46,4.46-3.41,8.08-3.11,16.21-8.78,23.92-3.51,4.78-6.24,5.24-7.87,12.16-.46,1.97,1.29,2.47,2.07,1.81.27-.23,1.81-5.43,2.45-6.58,1.59-2.82,5-5.06,6.94-8.19,4.3-6.92,4.57-14.21,7.34-21.45,1.05-2.73,4.45-5.52.71-7.78-2.32-1.4-5.7-.51-7.4,1.58-.78.95-4.67,10.45-6.6,8.77-.19-1.23-.45-2.37-.52-3.64-.47-8.29,1.84-19.27.4-27.24-.63-3.44-4.59-5.35-7.05-2.65Z"/>
    <path class="cls-1" d="M31.18.18c-14.05-2.06-22.11,14.41-11.52,23.75l1.56-1.18c-4.96-5.16-5.49-14,.89-18.22,9.8-6.49,21.76,3.92,16.47,14.51-.68,1.36-2.97,2.94-1.92,4.46,1.8,2.61,5.36-5.48,5.59-7.14,1.04-7.47-3.28-15.04-11.07-16.18Z"/>
  </g>
</svg>