<?xml version="1.0" encoding="UTF-8"?>
<svg id="Layer_2" data-name="Layer 2" xmlns="http://www.w3.org/2000/svg" viewBox="0 0 68.95 63.44">
  <defs>
    <style>
      .cls-1 {
        fill: #fff;
      }
    </style>
  </defs>
  <g id="Layer_1-2" data-name="Layer 1">
    <path class="cls-1" d="M58.07,22.42l.87,3.59-1.6,1.29c-2.69-3.48-3.1-9.74-9.04-7.31-.04,1.49,1.61,3.27,1.49,4.63-.42,4.88-5.3-5.38-5.72-5.65-1.34-.86-5.79-1.11-5.46,1.15.19,1.32,4.36,6.55,2.11,7.19l-1.22-.23L25.84,2.66l-1.94-.25c-.2,1.49.15,2.66.6,4.04,2.44,7.47,7.76,15.46,10.16,23.03,1.42,4.48,1.7,9.46-4.24,9.98s-10.74-7.26-14.82-1.66c7.9,1.74,12.24,9.52,18.39,13.33,3.48,2.16,8.44,2.87,11.36,4.75.54.35,5.47,5.23,5.64,5.59.35.76.29,1.75-.5,1.95-1.46.38-5.02-4.46-6.72-5.47-3.05-1.8-7.22-2.14-10.75-4.38-4.29-2.72-7.93-7.68-12.08-10.37-3.11-2.02-11.17-3.26-6.33-8.34,5.21-5.47,12.73,3.87,16.98,1.85,2.36-1.12.7-6.07,0-8.07-2.32-6.56-9.02-16.9-10.01-23.17-.19-1.23-.25-2.47-.02-3.7,7.92-7.31,11.36,10.06,15.03,14.58,2.32.06,4.71-.64,7.05-.25,1.38.23,2,1.37,3.44,1.48,1.61.13,2.86-.69,4.76-.43,2.55.36,3.24,2.18,4.97,2.86,3.14,1.24,5.33-.25,7.37,3.86,2.24,4.51,5.54,17.41,4.62,22.2-.35,1.84-2.16,2.64-2.45.04-.79-7.08-1.04-13.12-4-19.92-.95-2.19-1.55-3.57-4.27-3.78Z"/>
    <path class="cls-1" d="M16.53,3.43c.41,2.75,5.05,11.2,4.38,13.3-.14.45-.63.92-1.16.8l-4.64-8.29-6.85,23.17c1.91.67,7.3-5.64,8.79-4.14,0,.53.09,1.11-.09,1.62-.44,1.26-9.6,7.01-11.39,8.02-1.43-.12-4.91-11.36-5.58-13.25l1.21-.8c1.74-.28,3.6,8.62,4.62,7.83l6.83-23.42c-1.48.7-6.91,5.42-8.28,4.38-.05-.04-.37-1.16-.36-1.22.11-.61,8.84-6.96,9.93-7.47.84-.39,1.6-.81,2.56-.52Z"/>
  </g>
</svg>